<svg width="140" height="13" viewBox="0 0 140 13" fill="none" xmlns="http://www.w3.org/2000/svg">
<path d="M132.508 0.516113L126.229 9.81983C125.407 11.0429 124.064 12.2222 122.419 12.3532V12.659H129.434C131.296 12.659 132.638 11.436 133.548 10.0382L140 0.516113H132.508Z" fill="#FF0000"/>
<path d="M16.6718 12.659V1.56447H19.833V12.659H16.6718ZM89.7248 12.659L82.1034 6.06345V12.659H79.4186V1.56447H81.6704L89.1619 8.0727V1.56447H91.8467V12.659C91.89 12.659 89.7248 12.659 89.7248 12.659ZM106.267 5.14618C104.838 4.40363 103.235 3.8358 101.07 3.8358C98.5154 3.8358 96.6101 5.18986 96.6101 7.06808C96.6101 8.98997 98.5587 10.344 101.027 10.344C103.106 10.344 104.708 9.81988 106.31 8.85893V11.6107C104.881 12.3533 103.019 12.8774 100.854 12.8774C96.5235 12.8774 93.1025 10.6061 93.1025 7.06808C93.1025 3.57372 96.5668 1.34607 100.854 1.34607C102.889 1.34607 104.708 1.73918 106.223 2.3507V5.14618H106.267ZM37.4575 12.659V1.56447H48.0236V3.96684H40.6187V6.71864H47.8503V9.12101H40.6187V12.7027L37.4575 12.659ZM108.172 12.659V1.56447H119.171V3.96684H111.333V5.88873H119.041V8.2911H111.333V10.344H119.128V12.7464C119.128 12.659 108.172 12.659 108.172 12.659ZM59.0659 8.5095L63.4396 12.7027H60.0619C59.3258 12.7027 58.8061 12.4406 58.4164 12.0912L55.4285 9.12101C55.3418 9.07733 55.2552 9.03365 55.1686 9.03365H53.1334V12.7027H49.9722V1.56447H56.8575C60.4084 1.56447 61.924 3.22429 61.924 5.01514C61.8807 7.11176 60.0619 8.11638 59.0659 8.5095ZM56.511 6.67496C57.7668 6.67496 58.3731 6.01977 58.3731 5.27722C58.3731 4.53467 57.8534 3.92316 56.511 3.92316H53.1334V6.63128H56.511V6.67496ZM31.8714 8.5095L36.245 12.659H32.8673C32.1312 12.659 31.6115 12.397 31.2218 12.0475L28.2339 9.07733C28.1473 9.03365 28.0607 8.98997 27.974 8.98997H25.9388V12.659H22.7776V1.56447H29.6196C33.1705 1.56447 34.6861 3.22429 34.6861 5.01514C34.7294 7.11176 32.8673 8.11638 31.8714 8.5095ZM29.3598 6.67496C30.6156 6.67496 31.2218 6.01977 31.2218 5.27722C31.2218 4.53467 30.7022 3.92316 29.3598 3.92316H25.9821V6.63128H29.3598V6.67496ZM11.7352 12.659L10.3495 10.213H4.28704L3.03124 12.659H0L6.06249 1.56447H8.79061L15.6326 12.659H11.7352ZM5.45624 7.89799H9.00712L7.18838 4.49099C7.18838 4.53467 5.45624 7.89799 5.45624 7.89799ZM74.9583 12.659L73.6159 10.213H67.6833L66.4708 12.659H63.5262L69.4155 1.56447H72.1003L78.769 12.659C78.7257 12.659 74.9583 12.659 74.9583 12.659ZM68.8525 7.89799H72.3168L70.5414 4.49099L68.8525 7.89799Z" fill="#051039"/>
</svg>
