<svg width="24" height="14" viewBox="0 0 24 14" fill="none" xmlns="http://www.w3.org/2000/svg">
<path d="M23.12 4.88695L19.25 0.976951C19.157 0.883222 19.0464 0.808828 18.9246 0.758059C18.8027 0.70729 18.672 0.681152 18.54 0.681152C18.408 0.681152 18.2773 0.70729 18.1554 0.758059C18.0336 0.808828 17.923 0.883222 17.83 0.976951V0.976951C17.6437 1.16431 17.5392 1.41776 17.5392 1.68195C17.5392 1.94614 17.6437 2.19959 17.83 2.38695L21.39 5.97695H1C0.734784 5.97695 0.48043 6.08231 0.292893 6.26984C0.105357 6.45738 0 6.71173 0 6.97695H0C0 7.24217 0.105357 7.49652 0.292893 7.68406C0.48043 7.87159 0.734784 7.97695 1 7.97695H21.45L17.83 11.587C17.7363 11.6799 17.6619 11.7905 17.6111 11.9124C17.5603 12.0342 17.5342 12.1649 17.5342 12.297C17.5342 12.429 17.5603 12.5597 17.6111 12.6815C17.6619 12.8034 17.7363 12.914 17.83 13.007C17.923 13.1007 18.0336 13.1751 18.1554 13.2258C18.2773 13.2766 18.408 13.3027 18.54 13.3027C18.672 13.3027 18.8027 13.2766 18.9246 13.2258C19.0464 13.1751 19.157 13.1007 19.25 13.007L23.12 9.12695C23.6818 8.56445 23.9974 7.80195 23.9974 7.00695C23.9974 6.21195 23.6818 5.44945 23.12 4.88695V4.88695Z" fill="white"/>
</svg>
