<svg width="25" height="14" viewBox="0 0 25 14" fill="none" xmlns="http://www.w3.org/2000/svg">
<path d="M20.0896 13.4032L24.0086 9.48417C24.6449 8.81731 25 7.93095 25 7.00917C25 6.08739 24.6449 5.20103 24.0086 4.53417L20.0896 0.615165C19.8083 0.33377 19.4268 0.175631 19.0289 0.175537C18.6311 0.175443 18.2495 0.333403 17.9681 0.614665C17.6867 0.895927 17.5285 1.27745 17.5284 1.67531C17.5283 2.07317 17.6863 2.45477 17.9676 2.73617L20.7476 5.51717L2.49756 5.54017C2.09973 5.54017 1.7182 5.6982 1.4369 5.97951C1.15559 6.26081 0.997559 6.64234 0.997559 7.04017C0.997559 7.43799 1.15559 7.81952 1.4369 8.10083C1.7182 8.38213 2.09973 8.54017 2.49756 8.54017L20.7286 8.51717L17.9676 11.2822C17.6943 11.5651 17.5431 11.944 17.5465 12.3373C17.55 12.7306 17.7077 13.1068 17.9858 13.3849C18.2639 13.663 18.6402 13.8208 19.0335 13.8242C19.4268 13.8276 19.8057 13.6764 20.0886 13.4032H20.0896Z" fill="#1E40AF"/>
</svg>
