<svg width="14" height="8" viewBox="0 0 14 8" fill="none" xmlns="http://www.w3.org/2000/svg">
<path d="M0.875046 0.549852C0.989907 0.549698 1.10366 0.57229 1.20975 0.616325C1.31583 0.66036 1.41214 0.724966 1.49313 0.806416L5.96726 5.27995C6.10263 5.41536 6.26334 5.52277 6.44023 5.59605C6.61712 5.66933 6.80671 5.70705 6.99818 5.70705C7.18964 5.70705 7.37924 5.66933 7.55612 5.59605C7.73301 5.52277 7.89373 5.41536 8.0291 5.27995L12.4962 0.812247C12.5769 0.728709 12.6734 0.662076 12.7801 0.616237C12.8868 0.570397 13.0016 0.546269 13.1178 0.54526C13.2339 0.544251 13.3491 0.566381 13.4566 0.610359C13.564 0.654337 13.6617 0.719282 13.7438 0.801405C13.8259 0.883529 13.8909 0.981185 13.9349 1.08868C13.9788 1.19617 14.001 1.31134 14 1.42748C13.999 1.54361 13.9748 1.65838 13.929 1.76509C13.8832 1.8718 13.8165 1.96832 13.733 2.049L9.26585 6.5167C8.66404 7.1174 7.84848 7.45477 6.99818 7.45477C6.14788 7.45477 5.33231 7.1174 4.7305 6.5167L0.256378 2.04317C0.133976 1.92085 0.0506096 1.76496 0.0168282 1.59525C-0.0169531 1.42553 0.000368512 1.2496 0.0666013 1.08973C0.132834 0.929864 0.245001 0.793233 0.38891 0.697131C0.532818 0.601028 0.702 0.549774 0.875046 0.549852Z" fill="#A1A1AA"/>
</svg>
