<svg width="16" height="8" viewBox="0 0 16 8" fill="none" xmlns="http://www.w3.org/2000/svg">
<path d="M14.9999 7.93514C14.8686 7.93532 14.7386 7.9095 14.6174 7.85917C14.4961 7.80885 14.3861 7.73501 14.2935 7.64193L9.18022 2.52932C9.02551 2.37457 8.84183 2.25181 8.63967 2.16806C8.43752 2.08431 8.22084 2.0412 8.00202 2.0412C7.7832 2.0412 7.56653 2.08431 7.36437 2.16806C7.16221 2.25181 6.97853 2.37457 6.82383 2.52932L1.71854 7.63526C1.62633 7.73074 1.51603 7.80689 1.39407 7.85928C1.27212 7.91166 1.14095 7.93924 1.00822 7.94039C0.875498 7.94155 0.74387 7.91625 0.621023 7.86599C0.498176 7.81573 0.386569 7.74151 0.292714 7.64765C0.198859 7.5538 0.124636 7.44219 0.0743742 7.31935C0.0241137 7.1965 -0.00117683 7.06487 -2.38419e-05 6.93215C0.00112915 6.79942 0.0287037 6.66825 0.0810919 6.5463C0.13348 6.42434 0.209631 6.31404 0.305103 6.22183L5.41039 1.11588C6.09818 0.429377 7.03025 0.0438089 8.00202 0.0438089C8.97379 0.0438089 9.90586 0.429377 10.5937 1.11588L15.7069 6.2285C15.8468 6.36829 15.9421 6.54645 15.9807 6.74041C16.0193 6.93437 15.9995 7.13543 15.9238 7.31814C15.8481 7.50084 15.7199 7.65699 15.5555 7.76683C15.391 7.87666 15.1977 7.93523 14.9999 7.93514Z" fill="#A1A1AA"/>
</svg>
