<svg width="16" height="8" viewBox="0 0 16 8" fill="none" xmlns="http://www.w3.org/2000/svg">
<path d="M1.00005 0.0492312C1.13132 0.0490552 1.26133 0.0748749 1.38257 0.125201C1.50381 0.175526 1.61388 0.249362 1.70644 0.342447L6.81972 5.45506C6.97443 5.60981 7.15811 5.73256 7.36026 5.81632C7.56242 5.90007 7.7791 5.94317 7.99792 5.94317C8.21674 5.94317 8.43341 5.90007 8.63557 5.81632C8.83773 5.73256 9.0214 5.60981 9.17611 5.45506L14.2814 0.349111C14.3736 0.253639 14.4839 0.177487 14.6059 0.125099C14.7278 0.0727113 14.859 0.0451364 14.9917 0.0439831C15.1244 0.0428297 15.2561 0.068121 15.3789 0.118382C15.5018 0.168642 15.6134 0.242866 15.7072 0.336721C15.8011 0.430576 15.8753 0.542183 15.9256 0.66503C15.9758 0.787877 16.0011 0.919503 16 1.05223C15.9988 1.18496 15.9712 1.31612 15.9188 1.43808C15.8665 1.56003 15.7903 1.67033 15.6948 1.76254L10.5895 6.86849C9.90176 7.555 8.96969 7.94057 7.99792 7.94057C7.02614 7.94057 6.09407 7.555 5.40629 6.86849L0.293003 1.75588C0.153115 1.61608 0.0578396 1.43793 0.0192323 1.24397C-0.019375 1.05 0.000421157 0.848947 0.0761158 0.666238C0.15181 0.48353 0.280002 0.327381 0.444468 0.217549C0.608935 0.107718 0.802285 0.0491416 1.00005 0.0492312Z" fill="#60A5FA"/>
</svg>
