<svg width="20" height="16" viewBox="0 0 20 16" fill="none" xmlns="http://www.w3.org/2000/svg">
<path d="M0.257116 10.4503L4.07293 14.2661C4.58823 14.7812 5.28702 15.0706 6.01565 15.0706C6.74427 15.0706 7.44307 14.7812 7.95836 14.2661L19.7429 2.48158C19.9097 2.30883 20.0021 2.07746 20 1.8373C19.9979 1.59715 19.9015 1.36742 19.7317 1.19759C19.5619 1.02777 19.3322 0.931443 19.092 0.929356C18.8519 0.927269 18.6205 1.01959 18.4477 1.18644L6.66322 12.971C6.49146 13.1427 6.25852 13.2391 6.01565 13.2391C5.77277 13.2391 5.53984 13.1427 5.36808 12.971L1.55226 9.15514C1.37951 8.98829 1.14814 8.89597 0.907984 8.89806C0.667827 8.90015 0.438097 8.99648 0.268274 9.1663C0.0984503 9.33612 0.00212153 9.56585 3.4625e-05 9.80601C-0.00205228 10.0462 0.0902697 10.2775 0.257116 10.4503Z" fill="#EFF6FF"/>
</svg>
