<svg width="29" height="29" viewBox="0 0 29 29" fill="none" xmlns="http://www.w3.org/2000/svg">
<path d="M10.8403 14.7934C12.0223 10.3401 10.6736 5.67203 7.44644 3.19839C3.05023 5.98722 0.514991 11.2318 1.43074 16.6957C1.73285 18.5018 2.38654 20.1615 3.30642 21.6164C6.74269 20.6573 9.76556 18.8412 10.8403 14.7934ZM16.7736 27.648C24.0289 26.4274 28.9209 19.5423 27.7019 12.2731C26.6879 6.22323 21.7657 1.81312 15.962 1.20389C14.7901 1.0812 13.5799 1.11429 12.3597 1.31903C10.9122 1.56214 9.56357 2.03327 8.33451 2.68722C14.7283 4.86047 18.1663 8.16515 18.4048 11.5501C18.5225 13.6412 17.5521 15.1528 16.2789 16.3846L25.3215 15.7519C25.576 15.7342 25.6573 16.0328 25.3463 16.122L3.78049 22.3194C5.97594 25.3502 9.38571 27.3658 13.1706 27.7631C14.3426 27.8858 15.5527 27.8545 16.7736 27.648ZM16.0445 0.40896C23.1485 1.14964 28.6871 7.16473 28.6901 14.4782C28.693 22.2952 22.3724 28.6336 14.574 28.6366C6.77391 28.6395 0.449033 22.3046 0.447267 14.4888C0.444322 6.67184 6.76508 0.332806 14.5634 0.330387C15.0628 0.330387 15.5574 0.358191 16.0445 0.40896Z" fill="white"/>
<path d="M1.43078 16.6957C1.73289 18.5018 2.38658 20.1616 3.30646 21.6165C6.74272 20.6574 9.76559 18.8412 10.8403 14.7934C12.0223 10.3401 10.6737 5.67209 7.44647 3.19845C3.05027 5.98728 0.515025 11.2319 1.43078 16.6957ZM27.7019 12.2731C28.921 19.5424 24.029 26.4274 16.7736 27.648C15.5528 27.8546 14.3426 27.8859 13.1707 27.7631C9.38575 27.3659 5.97597 25.3503 3.78052 22.3194L25.3463 16.122C25.6573 16.0329 25.5761 15.7343 25.3216 15.752L16.279 16.3847C17.5521 15.1529 18.5226 13.6413 18.4048 11.5501C18.1663 8.16521 14.7283 4.86054 8.33454 2.68729C9.5636 2.03333 10.9122 1.56221 12.3597 1.31909C13.58 1.11435 14.7901 1.08126 15.9621 1.20395C21.7657 1.81318 26.6879 6.2233 27.7019 12.2731Z" fill="#CF181F"/>
</svg>
