<svg width="16" height="16" viewBox="0 0 16 16" fill="none" xmlns="http://www.w3.org/2000/svg">
<path d="M15.9693 3.68652L10.3573 9.29852C9.73158 9.92269 8.88383 10.2732 8 10.2732C7.11617 10.2732 6.26842 9.92269 5.64267 9.29852L0.0306667 3.68652C0.0213333 3.79186 0 3.88719 0 3.99186V11.9919C0.00105857 12.8756 0.352588 13.7228 0.97748 14.3477C1.60237 14.9726 2.4496 15.3241 3.33333 15.3252H12.6667C13.5504 15.3241 14.3976 14.9726 15.0225 14.3477C15.6474 13.7228 15.9989 12.8756 16 11.9919V3.99186C16 3.88719 15.9787 3.79186 15.9693 3.68652Z" fill="#52525B"/>
<path d="M9.4147 8.35602L15.504 2.26602C15.2091 1.7769 14.793 1.37205 14.296 1.09051C13.799 0.808973 13.2379 0.660252 12.6667 0.658691H3.33337C2.76218 0.660252 2.20103 0.808973 1.70405 1.09051C1.20707 1.37205 0.791018 1.7769 0.496033 2.26602L6.58537 8.35602C6.96108 8.73023 7.46976 8.94034 8.00003 8.94034C8.53031 8.94034 9.03899 8.73023 9.4147 8.35602Z" fill="#52525B"/>
</svg>
