<svg width="120" height="51" viewBox="0 0 120 51" fill="none" xmlns="http://www.w3.org/2000/svg">
<path d="M91.61 25.1062C98.0503 25.6967 100.482 25.7623 103.439 25.7623C106.265 25.6967 108.434 26.0904 110.799 23.5314C113.297 20.9067 113.034 19.5944 111.522 19.9881C109.288 20.6442 101.073 23.4658 91.4128 24.7781C90.9528 24.8437 91.0842 25.1062 91.61 25.1062Z" fill="#C43B30"/>
<path d="M89.3757 24.45C96.0132 22.7439 112.508 13.8857 115.006 12.3109C116.188 11.5891 117.568 11.9828 115.4 15.4605C113.954 17.6258 112.968 18.8726 109.091 19.988C106.397 20.9723 96.5389 23.8594 89.5729 24.7124C89.0471 24.7781 88.9157 24.5812 89.3757 24.45Z" fill="#FACB2D"/>
<path d="M90.0328 23.9251C95.8159 21.8909 108.368 15.3293 112.64 12.7046C115.728 10.8017 118.094 9.42375 119.014 7.12716C120.986 1.74659 119.474 -0.418767 117.568 1.28727C115.137 3.64947 103.833 15.5261 89.3099 23.8594C89.1127 23.9907 89.1127 24.2531 90.0328 23.9251Z" fill="#5F8C4D"/>
<path d="M0 36.5235L1.44578 35.5392V23.2032L0 22.1534H11.1062V24.6468L9.26616 23.2032H3.48302V28.3214H7.62322L9.26616 27.0746V30.5523L7.62322 29.3712H3.48302V35.5392H9.46331L11.5005 33.8332V36.5235H0Z" fill="#C43B30"/>
<path d="M18.5322 35.0799L19.1236 35.4736C18.8608 36.0641 17.8093 36.7859 16.4292 36.7859C14.9834 36.7859 13.9977 35.8673 13.9977 34.6206V27.0746H11.9604L16.1006 24.1875V26.2872H19.1894V27.1403H16.1006V35.7361C16.1006 35.7361 16.2978 35.9985 16.8235 35.9985C18.0065 35.9329 18.4008 35.2111 18.5322 35.0799Z" fill="#C43B30"/>
<path d="M19.781 36.5235L21.2268 35.4736V23.7938L19.781 22.744L23.264 21.6941V28.2558L24.4469 27.3371C25.9584 26.2216 27.3385 26.0248 28.1928 26.0248C30.4929 26.0248 31.2816 27.0747 31.2816 28.5182V35.4736L32.7273 36.5235H29.2443V28.5182C29.2443 28.0589 28.85 27.2715 27.6014 27.2715C26.8785 27.2715 25.7613 27.4684 24.5784 28.387L23.264 29.3056V35.4736L24.7098 36.5235H19.781Z" fill="#C43B30"/>
<path d="M44.425 26.0904C48.1052 26.0904 50.6024 28.6494 50.6024 31.4054C50.6024 34.1613 48.1052 36.7203 44.425 36.7203C40.7448 36.7203 38.2476 34.1613 38.2476 31.4054C38.2476 28.6494 40.8105 26.0904 44.425 26.0904ZM48.1709 31.4054C48.1709 29.24 47.1851 26.8778 44.4907 26.8778C41.7963 26.8778 40.8105 29.24 40.8105 31.4054C40.8105 33.5707 41.7963 35.9329 44.4907 35.9329C47.1851 35.9329 48.1709 33.5707 48.1709 31.4054Z" fill="#C43B30"/>
<path d="M50.9968 40.6573L52.4426 39.6075V28.3214L50.9968 27.2715L54.5456 26.2872V27.534C55.5313 26.2872 57.4371 26.0904 58.6858 26.0904C61.7088 26.0904 63.6146 28.7807 63.6146 31.4054C63.6146 33.8988 61.7088 36.7203 58.6858 36.7203C57.4371 36.7203 55.6628 36.4578 54.5456 35.2767V39.6075L55.7942 40.6573H50.9968ZM54.5456 28.7151V34.03C55.2027 35.1455 56.4514 35.6704 57.8314 35.6704C60.4601 35.6704 61.1173 33.2426 61.1173 31.3397C61.1173 29.4368 60.4601 27.009 57.8314 27.009C56.4514 27.0746 55.2027 27.5996 54.5456 28.7151Z" fill="#C43B30"/>
<path d="M71.1719 29.1088V26.8778C72.0919 26.3529 73.9977 26.0248 75.3121 26.0248C78.1379 26.0248 79.6494 26.8778 79.6494 28.5182V35.4736L81.0952 36.5235H77.5464V34.883L73.6691 36.5235C73.3405 36.6547 72.7491 36.7203 72.4205 36.7203C70.9747 36.7203 69.7261 35.6704 69.7261 34.03C69.7261 31.9959 72.0262 30.3555 74.6549 30.3555H77.5464V28.5182C77.5464 27.534 76.5607 26.8778 75.3121 26.8778C74.5892 26.8778 74.0634 27.009 73.6034 27.4027L71.1719 29.1088ZM72.0262 33.8332C72.0262 35.1455 72.8148 35.4736 73.472 35.4736C73.7348 35.4736 74.392 35.2111 74.7206 35.0799L77.6122 33.8332V31.1429H75.3778C73.3405 31.2085 72.0262 32.1928 72.0262 33.8332Z" fill="#C43B30"/>
<path d="M89.7043 26.0904C92.5959 26.0904 93.1873 27.5996 93.1873 28.5838V35.5392L94.6331 36.5891H91.1501V28.5182C91.1501 27.9933 90.7558 27.2715 89.1129 27.2715C88.39 27.2715 87.3385 27.2715 86.0241 28.3214L84.7755 29.3712V35.5392L86.2213 36.5891H81.2925L82.7383 35.5392V28.3214L81.2925 27.2715L84.7755 26.2872V28.3214L85.827 27.4683C87.5356 26.156 88.9814 26.0904 89.7043 26.0904Z" fill="#C43B30"/>
<path d="M33.1216 36.5235L34.5674 35.5393V28.3214L33.1216 27.2715L36.6046 26.2873V35.5393L38.0504 36.5235H33.1216Z" fill="#C43B30"/>
<path d="M34.3701 24.1876C34.3701 23.7282 34.8959 23.3345 35.4873 23.3345C36.0788 23.3345 36.6045 23.7282 36.6045 24.1876C36.6045 24.6469 36.0788 25.0406 35.4873 25.0406C34.8959 25.0406 34.3701 24.6469 34.3701 24.1876Z" fill="#C43B30"/>
<path d="M64.2058 36.5235L65.6516 35.5393V28.3214L64.2058 27.2715L67.6888 26.2873V35.5393L69.1346 36.5235H64.2058Z" fill="#C43B30"/>
<path d="M65.4546 24.1876C65.4546 23.7282 65.9803 23.3345 66.5718 23.3345C67.1632 23.3345 67.689 23.7282 67.689 24.1876C67.689 24.6469 67.1632 25.0406 66.5718 25.0406C65.9146 25.0406 65.4546 24.6469 65.4546 24.1876Z" fill="#C43B30"/>
<path d="M43.8335 44.2662C43.8335 43.282 44.6878 42.6914 45.8708 42.6914C47.0537 42.6914 47.9737 42.9539 47.9737 44.135V44.5943C47.9737 45.2505 47.7108 45.7754 46.7908 45.841C45.5422 45.9067 45.2136 45.9723 44.2278 45.841C43.7021 45.7098 43.7678 44.8568 43.8335 44.5943V44.2662ZM44.4907 47.7439L45.6079 48.5969C45.805 48.7282 46.0022 48.8594 46.0022 49.1875V50.1061L45.1479 50.6967H47.9737L47.1194 50.1061V49.1219C47.1194 48.6626 47.0537 48.2689 46.5936 47.9408L45.4107 46.9565C44.9507 46.6284 44.9507 46.6284 44.7536 46.4316C44.7536 46.4316 45.7393 46.4972 46.1993 46.4972C48.0394 46.4972 48.8938 46.1035 49.1566 45.513C49.2881 45.1849 49.3538 44.7912 49.3538 44.2006C49.3538 43.6101 49.2881 43.5445 49.1566 43.2164C48.6966 42.429 47.448 42.1665 46.0022 42.1665C44.6878 42.1665 43.2421 42.6258 42.782 43.6101C42.7163 43.8069 42.6506 44.0694 42.5849 44.2662C42.5849 44.988 42.3877 45.9723 43.3078 46.6941L44.4907 47.7439Z" fill="#C43B30"/>
<path d="M62.4315 46.4316V50.0405L61.5772 50.6311H64.4688L63.6145 50.0405V46.4316H65.7831V47.7439H67.8204L66.966 47.1534V45.9723H63.5487V44.0038C63.5487 43.5445 63.2859 43.4132 62.9573 43.4132H62.4315V42.1665L60.3943 42.7571L61.2486 43.3476V43.8069H62.4315V45.9723H59.0142V47.1534L58.1599 47.7439H60.1972V46.4316H62.4315Z" fill="#C43B30"/>
<path d="M77.5467 46.4317L76.6923 45.8411V44.66H74.9837C74.9837 44.5288 74.9837 44.3975 74.9837 44.2663C74.9837 43.6757 74.918 43.6101 74.7865 43.282C74.3265 42.4946 73.0779 42.2322 71.6321 42.2322C70.3178 42.2322 68.872 42.6915 68.4119 43.6757C68.3462 43.8726 68.2805 44.1351 68.2148 44.3319C68.2148 45.0537 68.0834 46.038 68.9377 46.7597L70.1863 47.744L71.3035 48.597C71.5007 48.7282 71.6978 48.8595 71.6321 49.1876V50.1062L70.7778 50.6967H73.6693L72.815 50.1062V49.1219C72.815 48.6626 72.7493 48.2689 72.2893 47.9408L71.1064 46.9566C70.6463 46.6285 70.6463 46.6285 70.4492 46.4317C70.4492 46.4317 71.4349 46.4973 71.895 46.4973C73.7351 46.4973 74.5894 46.1036 74.8523 45.513C74.918 45.3818 74.9837 45.2505 74.9837 45.1193H75.5094V46.4317H77.5467ZM73.6693 44.5944C73.6693 45.2506 73.4065 45.7755 72.4864 45.8411C71.2378 45.9067 70.9092 45.9723 69.9234 45.8411C69.3977 45.7099 69.5291 44.8569 69.5291 44.5944V44.2007C69.5291 43.2164 70.3835 42.6915 71.5664 42.6259C72.7493 42.6259 73.6693 42.8883 73.6693 44.0694V44.5944Z" fill="#C43B30"/>
<path d="M90.0328 46.4316C90.0328 46.4316 91.0186 46.4972 91.4786 46.4972C93.3187 46.4972 94.173 46.1035 94.4359 45.513C94.5673 45.1849 94.633 44.7912 94.633 44.2006C94.633 43.6101 94.5673 43.5445 94.4359 43.2164C94.0416 42.429 92.7272 42.1665 91.2815 42.1665C89.9671 42.1665 88.5213 42.6258 88.0613 43.6101C87.9956 43.8069 87.9299 44.0694 87.8642 44.2662C87.8642 44.988 87.7327 45.9723 88.587 46.6941L91.2815 48.8594L87.4041 49.1875V50.0405L86.5498 50.6311H89.4414L88.587 50.0405V49.5812L92.9244 49.1875V48.7282L90.0328 46.4316ZM89.1785 44.2662C89.1785 43.282 90.0328 42.7571 91.2157 42.6914C92.3987 42.6914 93.3187 42.9539 93.3187 44.135V44.5943C93.3187 45.2505 93.0558 45.7754 92.1358 45.841C90.8872 45.9067 90.5586 45.9723 89.5728 45.841C89.0471 45.7098 89.1128 44.8568 89.1785 44.5943V44.2662Z" fill="#C43B30"/>
<path d="M59.4085 50.6967L58.5542 50.1061V48.9906H57.9628L56.8456 49.7124V47.219C56.7798 45.7754 55.0712 45.7098 53.0997 45.9067L54.6769 43.8725V43.4132H52.8368V42.1665L50.7996 42.7571L51.6539 43.3476V43.8069H53.2968L51.4567 46.2347C51.1939 46.6284 50.931 47.0878 50.931 47.6783V49.9749L50.0767 50.5655H52.9682L52.1139 49.9749V47.6783C52.1139 47.1534 52.3111 46.9565 52.3768 46.8253C52.5082 46.6941 52.5082 46.6284 52.5739 46.5628C52.6396 46.4972 52.7711 46.4316 52.7711 46.4316C53.0997 46.366 55.6626 45.9723 55.6626 47.219V49.8437C55.6626 50.303 55.9255 50.5655 56.1227 50.5655C56.2541 50.5655 56.3855 50.5655 56.5827 50.4342C56.8456 50.303 57.3056 49.9749 57.3056 49.9749V50.5655H59.4085V50.6967Z" fill="#C43B30"/>
<path d="M84.5783 48.6626C84.5783 47.2847 83.5925 47.0878 82.7382 46.9566C82.8696 46.891 83.1325 46.8254 83.2639 46.7597C84.3811 46.366 84.644 45.9067 84.644 45.1193H85.104V46.4317H87.1413L86.287 45.8411V44.66H84.5126C84.3154 44.0694 83.724 43.4789 81.9496 43.4789V42.2322L79.9124 42.8227L80.7667 43.4133C79.5181 43.4133 78.2037 43.9382 78.2037 45.1193C78.138 46.2348 78.9923 46.7597 80.1095 46.8254L78.8609 47.2847C78.2037 47.5471 77.8094 47.8096 77.8094 48.9251V50.1062L76.9551 50.6967H79.8466L78.9923 50.1062V48.9907C78.9923 48.6626 78.9266 48.4002 79.4523 48.2033C79.4523 48.2033 81.4239 47.4815 81.5553 47.4815C82.5411 47.5471 83.3297 47.6128 83.3297 48.6626V50.1062L82.4753 50.6967H85.3669L84.5126 50.1062V48.6626H84.5783ZM81.2924 46.366C79.9124 46.366 79.5181 46.1036 79.5181 45.0537C79.5181 44.0038 80.7667 43.8726 81.4896 43.8726C83.1325 43.807 83.4611 44.3975 83.3954 44.9225C83.3954 45.3162 83.3954 45.6443 82.6068 45.9067C82.4096 45.9723 81.8182 46.2348 81.2924 46.366Z" fill="#C43B30"/>
</svg>
