<svg width="24" height="24" viewBox="0 0 24 24" fill="none" xmlns="http://www.w3.org/2000/svg">
<g clip-path="url(#clip0_605_2468)">
<path d="M0 0H24V24H0V0Z" fill="#003399"/>
<path d="M12 10.9273L11.6444 12.1125L12.237 12.231L12 10.9273Z" fill="#FFCC00"/>
<path d="M12 10.9273L12.3555 12.1125L11.7629 12.231L12 10.9273Z" fill="#FFCC00"/>
<path d="M13.1272 11.7462L11.8902 11.7743L11.9606 12.3745L13.1272 11.7462Z" fill="#FFCC00"/>
<path d="M13.1272 11.7462L12.1099 12.4506L11.814 11.9237L13.1272 11.7462Z" fill="#FFCC00"/>
<path d="M12.6967 13.0713L12.2877 11.9035L11.7386 12.1559L12.6967 13.0713Z" fill="#FFCC00"/>
<path d="M12.6966 13.0713L11.7124 12.3215L12.1221 11.8773L12.6966 13.0713Z" fill="#FFCC00"/>
<path d="M10.8728 11.7462L12.1098 11.7743L12.0394 12.3745L10.8728 11.7462Z" fill="#FFCC00"/>
<path d="M10.8728 11.7462L11.8901 12.4506L12.186 11.9237L10.8728 11.7462Z" fill="#FFCC00"/>
<path d="M11.3033 13.0713L11.7123 11.9035L12.2614 12.1559L11.3033 13.0713Z" fill="#FFCC00"/>
<path d="M11.3034 13.0713L12.2876 12.3215L11.8779 11.8773L11.3034 13.0713Z" fill="#FFCC00"/>
<path d="M12 10.9273L11.6444 12.1125L12.237 12.231L12 10.9273Z" fill="#FFCC00"/>
<path d="M12 10.9273L12.3555 12.1125L11.7629 12.231L12 10.9273Z" fill="#FFCC00"/>
<path d="M13.1272 11.7462L11.8902 11.7743L11.9606 12.3745L13.1272 11.7462Z" fill="#FFCC00"/>
<path d="M13.1272 11.7462L12.1099 12.4506L11.814 11.9237L13.1272 11.7462Z" fill="#FFCC00"/>
<path d="M12.6967 13.0713L12.2877 11.9035L11.7386 12.1559L12.6967 13.0713Z" fill="#FFCC00"/>
<path d="M12.6966 13.0713L11.7124 12.3215L12.1221 11.8773L12.6966 13.0713Z" fill="#FFCC00"/>
<path d="M10.8728 11.7462L12.1098 11.7743L12.0394 12.3745L10.8728 11.7462Z" fill="#FFCC00"/>
<path d="M10.8728 11.7462L11.8901 12.4506L12.186 11.9237L10.8728 11.7462Z" fill="#FFCC00"/>
<path d="M11.3033 13.0713L11.7123 11.9035L12.2614 12.1559L11.3033 13.0713Z" fill="#FFCC00"/>
<path d="M11.3034 13.0713L12.2876 12.3215L11.8779 11.8773L11.3034 13.0713Z" fill="#FFCC00"/>
<path d="M12 10.9273L11.6444 12.1125L12.237 12.231L12 10.9273Z" fill="#FFCC00"/>
<path d="M12 10.9273L12.3555 12.1125L11.7629 12.231L12 10.9273Z" fill="#FFCC00"/>
<path d="M13.1272 11.7462L11.8902 11.7743L11.9606 12.3745L13.1272 11.7462Z" fill="#FFCC00"/>
<path d="M13.1272 11.7462L12.1099 12.4506L11.814 11.9237L13.1272 11.7462Z" fill="#FFCC00"/>
<path d="M12.6967 13.0713L12.2877 11.9035L11.7386 12.1559L12.6967 13.0713Z" fill="#FFCC00"/>
<path d="M12.6966 13.0713L11.7124 12.3215L12.1221 11.8773L12.6966 13.0713Z" fill="#FFCC00"/>
<path d="M10.8728 11.7462L12.1098 11.7743L12.0394 12.3745L10.8728 11.7462Z" fill="#FFCC00"/>
<path d="M10.8728 11.7462L11.8901 12.4506L12.186 11.9237L10.8728 11.7462Z" fill="#FFCC00"/>
<path d="M11.3033 13.0713L11.7123 11.9035L12.2614 12.1559L11.3033 13.0713Z" fill="#FFCC00"/>
<path d="M11.3034 13.0713L12.2876 12.3215L11.8779 11.8773L11.3034 13.0713Z" fill="#FFCC00"/>
<path d="M7.83503 6.96664L8.81931 6.21679L8.40956 5.77259L7.83503 6.96664Z" fill="#FFCC00"/>
<path d="M7.83501 6.96665L8.244 5.79883L8.79308 6.05126L7.83501 6.96665Z" fill="#FFCC00"/>
<path d="M7.40449 5.64155L8.42179 6.34595L8.71763 5.81898L7.40449 5.64155Z" fill="#FFCC00"/>
<path d="M7.40447 5.64156L8.64152 5.66965L8.57112 6.26986L7.40447 5.64156Z" fill="#FFCC00"/>
<path d="M8.53164 4.8226L8.17609 6.00779L8.76868 6.1263L8.53164 4.8226Z" fill="#FFCC00"/>
<path d="M8.53165 4.8226L8.88721 6.00779L8.29461 6.1263L8.53165 4.8226Z" fill="#FFCC00"/>
<path d="M9.22826 6.96664L8.24398 6.21679L8.65373 5.77259L9.22826 6.96664Z" fill="#FFCC00"/>
<path d="M9.22828 6.96665L8.8193 5.79883L8.27021 6.05126L9.22828 6.96665Z" fill="#FFCC00"/>
<path d="M9.65887 5.64155L8.64156 6.34595L8.34572 5.81898L9.65887 5.64155Z" fill="#FFCC00"/>
<path d="M9.65888 5.64156L8.42183 5.66965L8.49224 6.26986L9.65888 5.64156Z" fill="#FFCC00"/>
<path d="M6.59193 9.603L6.18294 8.43518L5.63386 8.68761L6.59193 9.603Z" fill="#FFCC00"/>
<path d="M6.59191 9.60299L5.60763 8.85315L6.01738 8.40895L6.59191 9.60299Z" fill="#FFCC00"/>
<path d="M5.19868 9.60302L6.18296 8.85318L5.77321 8.40898L5.19868 9.60302Z" fill="#FFCC00"/>
<path d="M5.19866 9.60303L5.60765 8.43521L6.15673 8.68764L5.19866 9.60303Z" fill="#FFCC00"/>
<path d="M4.76808 8.27794L5.78538 8.98233L6.08122 8.45537L4.76808 8.27794Z" fill="#FFCC00"/>
<path d="M4.76806 8.27794L6.00511 8.30603L5.9347 8.90624L4.76806 8.27794Z" fill="#FFCC00"/>
<path d="M7.02245 8.27794L6.00515 8.98233L5.70931 8.45537L7.02245 8.27794Z" fill="#FFCC00"/>
<path d="M7.02247 8.27794L5.78542 8.30603L5.85582 8.90624L7.02247 8.27794Z" fill="#FFCC00"/>
<path d="M5.8953 7.45898L6.25085 8.64417L5.65826 8.76269L5.8953 7.45898Z" fill="#FFCC00"/>
<path d="M5.89529 7.45898L5.53973 8.64417L6.13233 8.76269L5.89529 7.45898Z" fill="#FFCC00"/>
<path d="M7.02381 15.4061L5.78676 15.4342L5.85717 16.0344L7.02381 15.4061Z" fill="#FFCC00"/>
<path d="M7.02379 15.4061L6.00649 16.1105L5.71065 15.5835L7.02379 15.4061Z" fill="#FFCC00"/>
<path d="M6.59327 16.7312L6.18429 15.5634L5.63521 15.8158L6.59327 16.7312Z" fill="#FFCC00"/>
<path d="M6.59325 16.7312L5.60897 15.9813L6.01872 15.5371L6.59325 16.7312Z" fill="#FFCC00"/>
<path d="M5.19996 16.7312L6.18424 15.9813L5.77449 15.5371L5.19996 16.7312Z" fill="#FFCC00"/>
<path d="M5.19994 16.7312L5.60893 15.5634L6.15801 15.8158L5.19994 16.7312Z" fill="#FFCC00"/>
<path d="M5.89658 14.5872L6.25214 15.7723L5.65954 15.8909L5.89658 14.5872Z" fill="#FFCC00"/>
<path d="M5.89657 14.5872L5.54102 15.7723L6.13361 15.8909L5.89657 14.5872Z" fill="#FFCC00"/>
<path d="M4.7694 15.4061L6.00645 15.4342L5.93605 16.0344L4.7694 15.4061Z" fill="#FFCC00"/>
<path d="M4.76942 15.4061L5.78672 16.1105L6.08256 15.5835L4.76942 15.4061Z" fill="#FFCC00"/>
<path d="M9.59608 17.7916L8.35903 17.8197L8.42943 18.4199L9.59608 17.7916Z" fill="#FFCC00"/>
<path d="M9.59606 17.7916L8.57875 18.496L8.28292 17.969L9.59606 17.7916Z" fill="#FFCC00"/>
<path d="M9.16554 19.1167L8.75655 17.9489L8.20747 18.2013L9.16554 19.1167Z" fill="#FFCC00"/>
<path d="M9.16552 19.1167L8.18123 18.3668L8.59099 17.9226L9.16552 19.1167Z" fill="#FFCC00"/>
<path d="M7.77222 19.1167L8.75651 18.3668L8.34676 17.9226L7.77222 19.1167Z" fill="#FFCC00"/>
<path d="M7.77221 19.1167L8.18119 17.9489L8.73027 18.2013L7.77221 19.1167Z" fill="#FFCC00"/>
<path d="M8.46885 16.9727L8.8244 18.1579L8.23181 18.2764L8.46885 16.9727Z" fill="#FFCC00"/>
<path d="M8.46884 16.9727L8.11328 18.1579L8.70587 18.2764L8.46884 16.9727Z" fill="#FFCC00"/>
<path d="M7.34167 17.7916L8.57872 17.8197L8.50831 18.4199L7.34167 17.7916Z" fill="#FFCC00"/>
<path d="M7.34168 17.7916L8.35899 18.496L8.65483 17.9691L7.34168 17.7916Z" fill="#FFCC00"/>
<path d="M12 10.9273L12.3556 12.1125L11.763 12.231L12 10.9273Z" fill="#FFCC00"/>
<path d="M12 10.9273L11.6445 12.1125L12.2371 12.231L12 10.9273Z" fill="#FFCC00"/>
<path d="M10.8728 11.7462L12.1098 11.7743L12.0394 12.3745L10.8728 11.7462Z" fill="#FFCC00"/>
<path d="M10.8728 11.7462L11.8901 12.4506L12.186 11.9237L10.8728 11.7462Z" fill="#FFCC00"/>
<path d="M11.3033 13.0713L11.7123 11.9035L12.2614 12.1559L11.3033 13.0713Z" fill="#FFCC00"/>
<path d="M11.3034 13.0713L12.2876 12.3215L11.8779 11.8773L11.3034 13.0713Z" fill="#FFCC00"/>
<path d="M13.1272 11.7462L11.8902 11.7743L11.9606 12.3745L13.1272 11.7462Z" fill="#FFCC00"/>
<path d="M13.1272 11.7462L12.1099 12.4506L11.814 11.9237L13.1272 11.7462Z" fill="#FFCC00"/>
<path d="M12.6967 13.0713L12.2877 11.9035L11.7386 12.1559L12.6967 13.0713Z" fill="#FFCC00"/>
<path d="M12.6966 13.0713L11.7124 12.3215L12.1221 11.8773L12.6966 13.0713Z" fill="#FFCC00"/>
<path d="M16.165 6.96664L15.1807 6.21679L15.5904 5.77259L16.165 6.96664Z" fill="#FFCC00"/>
<path d="M16.165 6.96665L15.756 5.79883L15.2069 6.05126L16.165 6.96665Z" fill="#FFCC00"/>
<path d="M16.5955 5.64155L15.5782 6.34595L15.2824 5.81898L16.5955 5.64155Z" fill="#FFCC00"/>
<path d="M16.5955 5.64156L15.3585 5.66965L15.4289 6.26986L16.5955 5.64156Z" fill="#FFCC00"/>
<path d="M15.4684 4.8226L15.8239 6.00779L15.2313 6.1263L15.4684 4.8226Z" fill="#FFCC00"/>
<path d="M15.4683 4.8226L15.1128 6.00779L15.7054 6.1263L15.4683 4.8226Z" fill="#FFCC00"/>
<path d="M14.7717 6.96664L15.756 6.21679L15.3462 5.77259L14.7717 6.96664Z" fill="#FFCC00"/>
<path d="M14.7717 6.96665L15.1806 5.79883L15.7297 6.05126L14.7717 6.96665Z" fill="#FFCC00"/>
<path d="M14.3411 5.64155L15.3584 6.34595L15.6543 5.81898L14.3411 5.64155Z" fill="#FFCC00"/>
<path d="M14.3411 5.64156L15.5782 5.66965L15.5078 6.26986L14.3411 5.64156Z" fill="#FFCC00"/>
<path d="M17.4081 9.603L17.8171 8.43518L18.3661 8.68761L17.4081 9.603Z" fill="#FFCC00"/>
<path d="M17.4081 9.60299L18.3924 8.85315L17.9826 8.40895L17.4081 9.60299Z" fill="#FFCC00"/>
<path d="M18.8014 9.60302L17.8171 8.85318L18.2269 8.40898L18.8014 9.60302Z" fill="#FFCC00"/>
<path d="M18.8014 9.60303L18.3924 8.43521L17.8433 8.68764L18.8014 9.60303Z" fill="#FFCC00"/>
<path d="M19.2319 8.27794L18.2146 8.98233L17.9188 8.45537L19.2319 8.27794Z" fill="#FFCC00"/>
<path d="M19.2319 8.27794L17.9949 8.30603L18.0653 8.90624L19.2319 8.27794Z" fill="#FFCC00"/>
<path d="M16.9775 8.27794L17.9948 8.98233L18.2906 8.45537L16.9775 8.27794Z" fill="#FFCC00"/>
<path d="M16.9775 8.27794L18.2145 8.30603L18.1441 8.90624L16.9775 8.27794Z" fill="#FFCC00"/>
<path d="M18.1047 7.45898L17.7491 8.64417L18.3417 8.76269L18.1047 7.45898Z" fill="#FFCC00"/>
<path d="M18.1047 7.45898L18.4603 8.64417L17.8677 8.76269L18.1047 7.45898Z" fill="#FFCC00"/>
<path d="M16.9762 15.4061L18.2132 15.4342L18.1428 16.0344L16.9762 15.4061Z" fill="#FFCC00"/>
<path d="M16.9762 15.4061L17.9935 16.1105L18.2894 15.5835L16.9762 15.4061Z" fill="#FFCC00"/>
<path d="M17.4067 16.7312L17.8157 15.5634L18.3648 15.8158L17.4067 16.7312Z" fill="#FFCC00"/>
<path d="M17.4067 16.7312L18.391 15.9813L17.9813 15.5371L17.4067 16.7312Z" fill="#FFCC00"/>
<path d="M18.8 16.7312L17.8158 15.9813L18.2255 15.5371L18.8 16.7312Z" fill="#FFCC00"/>
<path d="M18.8001 16.7312L18.3911 15.5634L17.842 15.8158L18.8001 16.7312Z" fill="#FFCC00"/>
<path d="M18.1034 14.5872L17.7479 15.7723L18.3405 15.8909L18.1034 14.5872Z" fill="#FFCC00"/>
<path d="M18.1034 14.5872L18.459 15.7723L17.8664 15.8909L18.1034 14.5872Z" fill="#FFCC00"/>
<path d="M19.2306 15.4061L17.9935 15.4342L18.064 16.0344L19.2306 15.4061Z" fill="#FFCC00"/>
<path d="M19.2306 15.4061L18.2133 16.1105L17.9174 15.5835L19.2306 15.4061Z" fill="#FFCC00"/>
<path d="M14.4039 17.7916L15.641 17.8197L15.5706 18.4199L14.4039 17.7916Z" fill="#FFCC00"/>
<path d="M14.4039 17.7916L15.4212 18.496L15.7171 17.969L14.4039 17.7916Z" fill="#FFCC00"/>
<path d="M14.8345 19.1167L15.2434 17.9489L15.7925 18.2013L14.8345 19.1167Z" fill="#FFCC00"/>
<path d="M14.8345 19.1167L15.8188 18.3668L15.409 17.9226L14.8345 19.1167Z" fill="#FFCC00"/>
<path d="M16.2278 19.1167L15.2435 18.3668L15.6532 17.9226L16.2278 19.1167Z" fill="#FFCC00"/>
<path d="M16.2278 19.1167L15.8188 17.9489L15.2697 18.2013L16.2278 19.1167Z" fill="#FFCC00"/>
<path d="M15.5312 16.9727L15.1756 18.1579L15.7682 18.2764L15.5312 16.9727Z" fill="#FFCC00"/>
<path d="M15.5312 16.9727L15.8867 18.1579L15.2941 18.2764L15.5312 16.9727Z" fill="#FFCC00"/>
<path d="M16.6583 17.7916L15.4213 17.8197L15.4917 18.4199L16.6583 17.7916Z" fill="#FFCC00"/>
<path d="M16.6583 17.7916L15.641 18.496L15.3452 17.9691L16.6583 17.7916Z" fill="#FFCC00"/>
</g>
<defs>
<clipPath id="clip0_605_2468">
<rect width="24" height="24" rx="12" fill="white"/>
</clipPath>
</defs>
</svg>
