<svg width="20" height="21" viewBox="0 0 20 21" fill="none" xmlns="http://www.w3.org/2000/svg">
<g clip-path="url(#clip0_56_1455)">
<path d="M19.9895 10.8538C19.9895 10.0344 19.9214 9.43648 19.7742 8.81641H10.1992V12.5147H15.8195C15.7062 13.4338 15.0943 14.8179 13.7346 15.748L13.7155 15.8718L16.7429 18.1636L16.9527 18.1841C18.8789 16.4456 19.9895 13.8877 19.9895 10.8538Z" fill="#4285F4"/>
<path d="M10.1992 20.5982C12.9527 20.5982 15.2642 19.7123 16.9526 18.1842L13.7345 15.7481C12.8734 16.335 11.7176 16.7447 10.1992 16.7447C7.5024 16.7447 5.2135 15.0063 4.39758 12.6034L4.27798 12.6133L1.13003 14.994L1.08887 15.1059C2.76588 18.3613 6.21059 20.5982 10.1992 20.5982Z" fill="#34A853"/>
<path d="M4.39748 12.6033C4.18219 11.9833 4.05759 11.3188 4.05759 10.6323C4.05759 9.94577 4.18219 9.28142 4.38615 8.66134L4.38045 8.52928L1.19304 6.11035L1.08875 6.15883C0.397576 7.50974 0.000976562 9.02676 0.000976562 10.6323C0.000976562 12.2379 0.397576 13.7549 1.08875 15.1058L4.39748 12.6033Z" fill="#FBBC05"/>
<path d="M10.1993 4.52009C12.1143 4.52009 13.406 5.32841 14.1426 6.0039L17.0207 3.25781C15.2531 1.65224 12.9528 0.666748 10.1993 0.666748C6.21062 0.666748 2.76589 2.90346 1.08887 6.15886L4.38627 8.66137C5.21354 6.25856 7.50245 4.52009 10.1993 4.52009Z" fill="#EB4335"/>
</g>
<defs>
<clipPath id="clip0_56_1455">
<rect width="20" height="20" fill="white" transform="translate(0 0.666748)"/>
</clipPath>
</defs>
</svg>
