<svg width="16" height="17" viewBox="0 0 16 17" fill="none" xmlns="http://www.w3.org/2000/svg">
<path d="M11.3333 12.9822V16.9822H14C15.1046 16.9822 16 16.0868 16 14.9822V8.90157C16.0002 8.55523 15.8656 8.22241 15.6247 7.97357L9.95934 1.84888C8.95972 0.767319 7.27259 0.700912 6.19103 1.70054C6.13966 1.74804 6.09016 1.79751 6.04269 1.84888L0.387344 7.97157C0.139156 8.22144 -9.37027e-05 8.55938 4.73072e-08 8.91157V14.9822C4.73072e-08 16.0868 0.895437 16.9822 2 16.9822H4.66666V12.9822C4.67912 11.1644 6.14684 9.67985 7.91894 9.6371C9.75031 9.59291 11.3194 11.1027 11.3333 12.9822Z" fill="#52525B"/>
<path d="M8 10.9819C6.89544 10.9819 6 11.8774 6 12.9819V16.9819H10V12.9819C10 11.8774 9.10456 10.9819 8 10.9819Z" fill="#52525B"/>
</svg>
