<svg width="92" height="50" viewBox="0 0 92 50" fill="none" xmlns="http://www.w3.org/2000/svg">
<path d="M0 26.6561C0.307949 26.3174 0.585102 25.9786 0.893051 25.6091C1.47815 25.024 2.15564 24.6544 2.67915 25.6091C3.23346 26.5637 3.14108 27.5184 2.15564 28.2266C1.44736 28.473 0.708282 28.7502 0 28.9965C0 28.1959 0 27.426 0 26.6561Z" fill="#FDFDFE"/>
<path d="M42.0351 12.7983C43.3592 14.9232 43.3284 17.4483 44.0367 19.7579C43.4516 21.5748 43.0205 23.4841 40.9265 24.3156C37.385 25.9785 33.4741 26.5944 29.8711 28.1034C28.7317 28.5653 27.8694 29.3659 27.3151 30.4438C26.2065 32.3838 25.5906 34.5395 24.9131 36.6643C24.2972 37.9577 25.0363 39.3743 24.6052 40.6985C24.0817 41.8071 23.7121 43.0081 22.8191 43.9011C22.7883 44.0243 22.7883 44.1475 22.7575 44.2707C22.4187 46.2415 22.8807 49.1054 20.6326 49.629C18.323 50.1525 17.7071 47.227 16.4753 45.6564C15.921 44.9481 15.5207 44.1167 14.9048 43.47C13.3035 41.7147 12.0717 41.7763 11.5482 44.3014C11.3942 45.0405 11.3018 45.8104 11.0862 46.5803C10.9015 47.2578 11.271 48.2432 10.1932 48.428C9.30013 48.5819 8.74582 47.8736 8.3147 47.2885C6.03588 44.3938 4.95806 40.9756 4.00342 37.4958C3.54149 35.7713 3.32593 33.9852 2.98719 32.2299C2.37129 29.5815 2.8948 26.9024 2.58685 24.254C5.32759 22.1907 7.23688 22.8374 7.88357 26.1017C8.09913 27.2411 7.97595 28.3805 8.03754 29.5199C8.09913 30.6285 7.76039 31.7679 8.40708 32.9074C9.42331 31.8603 8.93059 30.4438 9.45411 29.3351C9.63888 28.7808 9.94682 28.2573 10.3164 27.7646C11.6405 26.0401 13.1803 25.455 15.0896 26.8716C16.7833 28.3497 16.1674 30.4438 16.5061 32.2607C16.6909 34.1083 16.5985 36.0176 17.5532 37.8961C18.1998 35.5249 18.6618 33.2153 18.477 30.8133C18.7849 26.7792 18.7849 22.6835 21.5257 19.296C23.9585 17.6639 26.6684 17.048 29.5631 17.048C32.6426 16.7093 35.9069 17.9103 38.8632 16.1549C40.3721 15.4467 40.6493 13.599 42.0351 12.7983Z" fill="#26348B"/>
<path d="M86.0101 42.3922C89.1819 41.4991 89.921 39.4051 90.0442 37.0031C90.1674 34.3855 88.874 32.507 86.5028 31.4908C83.2385 30.0742 80.0359 30.4746 77.2951 32.6918C74.4004 35.063 73.6921 38.358 74.5236 41.8687C75.355 45.3177 78.0342 46.8574 81.3908 47.3501C84.1932 47.7505 86.8723 47.3194 89.2127 45.6256C90.075 44.9789 90.814 44.3015 91.9843 44.7942C89.7054 48.9823 84.5011 50.5528 78.8349 48.7975C74.3696 47.4117 71.8136 43.3468 72.3679 38.5428C72.9838 33.0921 76.4021 29.4275 81.4524 28.9656C85.3018 28.6269 88.874 29.212 90.8756 32.9689C92.5386 36.0792 92.3846 39.2203 90.229 42.0842C88.72 44.0859 86.7183 45.1945 84.1008 44.517C83.3617 44.3323 82.7766 44.1475 81.9143 44.3322C78.2805 45.0097 76.4329 43.6856 76.1865 40.5753C75.9093 37.0031 78.6809 33.3077 81.7296 33.2769C83.2385 33.2461 84.6551 34.016 86.2872 33.6156C87.6422 33.2769 87.4882 34.4163 87.3034 35.4017C86.8723 37.5882 86.5028 39.8362 86.0101 42.3922Z" fill="#212F88"/>
<path d="M3.07958 23.792C3.04879 26.5943 3.04879 29.3967 3.01799 32.199C2.15574 30.998 2.55607 29.5198 2.15574 28.1957C1.81699 27.3026 3.11038 25.6089 0.893146 25.6089C0.954736 23.0837 0.400429 20.4661 1.7554 18.0333C2.86402 17.1403 3.88025 17.633 4.86568 18.2489C5.78953 18.3413 6.65178 20.9281 7.66801 18.3105C8.28391 17.4175 9.11537 17.3867 10.0392 17.6946C10.2548 17.8178 10.4703 17.9718 10.6551 18.1565C11.5482 19.0496 11.425 21.2976 13.4267 20.6817C15.2435 20.1582 14.4737 18.3413 14.72 17.0479C14.7816 16.6784 14.8124 16.278 14.9048 15.9085C15.028 15.5698 15.182 15.2618 15.4283 14.9539C15.7363 14.7691 16.1058 14.6767 16.4753 14.7383C19.8628 16.5244 20.2015 14.2148 20.4479 11.8128C20.7866 10.8889 21.3717 10.2423 22.3572 9.99589C25.9294 9.68794 25.9294 9.68794 24.1433 5.7462C23.5274 4.5452 22.4803 3.28261 23.4042 1.95843C24.1433 0.911409 25.1903 1.46572 26.0217 2.1432C26.6992 2.88228 27.0688 3.74454 27.3459 4.66838C27.8386 6.08495 27.7155 7.71707 29.0704 8.94887C29.3168 7.80946 27.9926 6.82402 28.9165 5.777C32.0883 5.59223 32.4887 8.54853 34.09 10.1807C34.1516 11.1969 33.7821 12.0284 32.9506 12.6442C31.9036 13.137 30.487 11.6588 29.7479 13.0754C28.8241 14.8307 30.7642 15.4466 31.5032 16.5244C31.5956 16.9247 31.5032 17.2635 31.2569 17.5714C30.7026 17.7254 30.1175 17.6946 29.5324 17.7254C26.6068 17.2019 23.9585 18.7108 21.1254 18.9264C20.0168 18.7416 18.785 17.8794 17.8919 19.1112C17.0296 20.3122 17.7995 21.2976 18.785 22.0983C19.2777 22.4986 19.9552 23.0221 19.4009 23.6688C16.7833 26.7483 18.8465 29.951 19.0005 33.1228C18.6618 34.293 17.9843 35.4632 16.7525 35.1861C15.2128 34.8165 16.6601 32.8765 15.5823 32.0142C14.5969 30.6284 16.2906 28.8116 14.8124 27.5182C14.8124 26.8715 14.6584 26.2556 14.4737 25.6397C14.1965 24.685 13.5806 23.9768 12.5336 24.1307C11.5482 24.2847 11.7021 25.2393 11.5482 25.9784C11.3942 26.7175 11.425 27.5182 10.9323 28.1649C10.6859 28.442 10.4396 28.7192 10.224 28.9963C8.43789 29.1195 7.42166 28.0417 7.88358 26.5635C9.02299 22.9297 6.77496 22.7142 4.28058 22.5294C3.81866 22.5602 3.11038 21.9135 2.9872 22.9605C3.07958 23.2377 3.07958 23.5148 3.07958 23.792Z" fill="#636CAB"/>
<path d="M37.6928 38.3272C37.6004 38.6968 37.5388 39.0663 37.4465 39.4358C36.9845 41.1604 38.1855 44.5786 36.8306 44.4246C33.9666 44.1167 30.7332 46.8266 28.1772 43.7163C27.3765 43.1312 26.853 42.3306 26.7606 41.3451C26.699 40.0517 27.3457 39.1587 28.362 38.4812C28.8239 38.1733 29.3474 37.9269 29.8709 37.7113C30.5792 37.465 31.3183 37.3418 32.1189 36.9415C30.4868 36.6335 28.054 38.8199 27.8077 35.3401C28.1156 34.3855 28.7931 33.7696 29.6246 33.2461C30.1481 32.9997 30.6716 32.8457 31.2567 32.7842C32.5501 32.7226 33.8435 32.6918 35.106 32.4454C35.5064 32.4146 35.8759 32.4762 36.2147 32.6302C36.3686 32.7534 36.5226 32.8457 36.6766 32.9689C37.8468 34.6011 38.8014 36.264 37.6928 38.3272Z" fill="#2C398D"/>
<path d="M22.6342 10.3655C21.8951 10.6735 21.3716 11.1662 21.1253 11.9053C20.0167 12.8291 18.8157 12.9523 17.5223 12.3056C16.6292 11.5665 17.1527 10.889 17.6147 10.2424C19.2468 9.22612 21.31 8.30228 18.8157 6.08505C17.8302 4.42212 18.2306 2.69761 18.7233 1.00389C25.6213 -1.09016 34.4286 1.71218 38.3088 7.22445C38.0316 7.50161 37.7237 7.62479 37.3234 7.65558C36.03 7.5632 35.3217 6.3622 34.0591 5.99266C34.7674 6.79333 35.4757 7.47081 35.6604 8.45625C35.6912 8.82579 35.5989 9.16453 35.4449 9.50327C35.1369 9.74963 34.829 9.84202 34.4286 9.78043C32.581 8.64102 31.4108 6.82412 29.9326 5.34597C28.7624 4.11417 27.0995 3.65225 25.8369 2.57443C25.2518 2.38966 24.2663 1.95853 24.174 2.11251C23.1885 3.52907 24.8207 4.42212 25.0362 5.65392C23.8968 7.03969 23.8968 9.01056 22.6342 10.3655Z" fill="#7E85B9"/>
<path d="M4.77324 18.9573C3.8186 18.5262 2.89475 17.9103 1.72455 18.0642C2.46362 14.3381 3.2027 10.6427 7.02126 8.64101C7.66796 8.48703 8.0067 8.85657 8.31465 9.3185C8.93055 11.043 8.96134 13.0447 10.6243 14.2765C11.3325 14.8308 12.2256 15.0155 12.9955 15.4775C13.673 16.0318 14.6276 16.5861 13.7961 17.6023C12.8723 18.7109 11.6713 18.9881 10.3471 18.2182C9.39247 17.9718 8.49942 17.9718 7.76034 18.7109C6.83649 19.8503 5.82026 19.5116 4.77324 18.9573Z" fill="#2B398D"/>
<path d="M56.6626 30.1666C56.5086 30.4129 56.293 31.0596 55.9543 31.152C53.2136 31.9527 52.9672 32.7226 55.8003 33.8312C56.0467 33.9236 56.1699 35.0938 56.0775 35.1553C52.5053 36.7875 54.4146 39.9285 53.9834 42.4229C53.7987 43.5315 54.199 44.8557 52.3513 44.7941C50.4112 44.7325 51.1195 43.2852 50.9039 42.269C50.442 39.9285 51.7354 37.5265 49.5798 35.1553C48.1016 33.5232 52.7516 28.4729 55.1536 28.9348C55.8003 29.058 56.447 29.1196 56.6626 30.1666Z" fill="#28368C"/>
<path d="M64.0225 38.7891C64.0225 38.3887 63.9609 37.9884 64.0225 37.6189C64.2996 36.2947 63.2834 33.9851 64.6999 33.8311C66.486 33.6463 68.3337 33.1228 70.1814 33.4C70.7357 33.4924 71.1977 33.8003 70.9821 34.447C70.7973 35.0321 70.6741 35.8944 69.9351 35.9252C66.2397 35.956 67.5023 38.7583 67.0711 40.6676C66.7632 42.0841 68.2721 44.6401 65.5314 44.6093C62.7599 44.6093 64.4844 42.0533 64.0533 40.6676C63.8685 40.1441 64.0225 39.4358 64.0225 38.7891Z" fill="#29378C"/>
<path d="M44.4985 33.5847C45.6072 33.3692 47.0853 32.7225 47.5164 34.1391C47.9476 35.494 46.6542 35.7096 45.4224 36.1407C42.5585 37.157 43.8519 39.8669 43.7903 41.8686C43.6979 44.1474 43.2976 45.4408 40.68 44.5169C39.9101 41.6838 40.3105 38.7275 39.9717 35.8328C39.5714 32.3222 42.4045 33.2768 44.4985 33.5847Z" fill="#29378C"/>
<path d="M44.4987 33.5849C40.9881 33.123 40.2182 34.8783 40.6185 37.9886C40.8957 40.1442 40.6493 42.3615 40.6493 44.5479C39.2943 43.1929 39.8795 41.4684 39.9718 39.9287C40.0642 37.8962 39.048 38.0194 37.693 38.3273C37.2927 36.4488 37.0155 34.5396 35.9685 32.8766C37.0155 31.7064 38.4629 31.1521 39.8487 30.5978C41.3576 30.0127 42.5586 30.2899 43.0205 32.076C43.5132 32.5687 44.006 33.0614 44.4987 33.5849Z" fill="#E9EBF3"/>
<path d="M58.7874 38.512C59.6496 37.1571 57.2168 33.8004 60.1731 33.7696C63.4374 33.7388 61.3433 37.1263 61.7745 38.9124C62.0824 40.2365 61.8052 41.7147 61.836 43.1313C61.836 44.2091 61.4973 44.825 60.2655 44.7942C59.0337 44.7634 58.7874 44.0551 58.7874 43.0389C58.7874 41.6223 58.7874 40.2365 58.7874 38.512Z" fill="#2F3C90"/>
<path d="M18.7233 0.973083C19.524 2.57442 19.0312 4.17575 18.8465 5.80788C19.6163 7.00888 19.0004 7.93272 18.2306 8.85657C17.8918 9.04134 17.5531 9.07213 17.1835 8.97975C16.4445 8.14828 16.5676 6.36218 14.72 6.76252C14.5968 4.94562 13.0878 6.48536 12.4719 5.83867C12.0408 5.93106 12.7491 4.57608 11.856 5.31516C11.0246 5.99265 10.2547 6.54695 9.17688 5.93106C11.4557 2.54362 15.0279 1.65057 18.7233 0.973083Z" fill="#626CAB"/>
<path d="M43.0512 32.0451C41.9734 30.6285 40.6184 30.8133 39.3866 31.6755C38.3396 32.3838 37.3542 33.0613 35.9992 32.8457L36.03 32.9073C35.1061 30.3514 37.3234 29.8278 38.7399 28.75C42.6509 29.6739 42.4353 26.1633 43.6671 24.2232C43.9751 24.0076 44.3138 23.946 44.6834 24.0076C45.1145 26.8715 43.5747 29.3659 43.0512 32.0451Z" fill="#5F68A9"/>
<path d="M27.4382 41.4684C27.6845 42.2383 27.9309 42.9774 28.1773 43.7473C26.422 44.4555 24.6666 45.2562 22.8498 43.9012C22.6034 42.4847 22.6034 41.1913 24.1739 40.483C24.3279 40.5138 24.4819 40.5754 24.6666 40.6062C25.4365 41.3453 26.6991 40.637 27.4382 41.4684Z" fill="#9298C4"/>
<path d="M9.20777 5.93101C10.07 5.43829 10.9015 4.94557 11.7945 4.51445C12.1333 4.36047 12.7184 3.83696 12.8108 4.69922C12.8416 5.00716 12.5644 5.3767 12.4104 5.71545C12.5028 7.22439 11.5482 8.11744 10.5319 9.0105C10.0084 9.38003 9.39254 9.65719 8.77664 9.84196C8.4379 9.90355 8.16074 9.84196 7.91439 9.5956C7.60644 9.28765 7.29849 8.9797 6.99054 8.67175C7.54485 7.56314 8.19154 6.6085 9.20777 5.93101Z" fill="#E3E4F0"/>
<path d="M44.6526 24.0077C44.3446 24.1001 44.0059 24.2233 43.698 24.3157C42.8665 26.3174 41.4191 26.5021 39.633 25.7015C39.2019 24.6236 39.8794 24.0693 40.6801 23.6074C42.3738 22.8067 42.5278 20.7127 44.0059 19.7581C45.2069 21.0206 42.9281 22.8067 44.6526 24.0077Z" fill="#EBECF4"/>
<path d="M35.2294 9.59563C35.2294 9.31848 35.2294 9.04132 35.2602 8.73337C35.8453 7.90191 36.8923 7.84032 37.6314 7.22443C37.8777 7.22443 38.0933 7.22443 38.3396 7.22443C38.4628 8.79496 40.5261 8.36384 41.0188 9.96517C39.7562 10.3655 38.3704 8.76417 37.4158 9.84199C36.2148 11.2278 38.2781 12.1824 38.1857 13.5066C37.8469 13.7221 37.5082 13.7837 37.1079 13.7221C35.7221 12.6751 34.1823 11.6897 35.2294 9.59563Z" fill="#7F86BA"/>
<path d="M37.4465 13.445C37.6929 13.5066 37.9084 13.5374 38.1548 13.5066C39.3866 14.3689 40.6184 15.0772 40.8955 12.706C40.9571 12.1824 40.9879 11.6589 41.6962 12.1517C41.881 12.2748 41.9117 12.552 42.0349 12.7675C41.2959 13.9378 41.8194 15.8162 39.9717 16.4013C38.9246 17.4176 37.9392 16.8941 36.9538 16.2782C36.6766 16.0318 36.5226 15.6931 36.4611 15.3235C36.4919 14.5537 36.8306 13.9378 37.4465 13.445Z" fill="#555FA4"/>
<path d="M60.1116 32.1067C58.849 32.1067 58.6334 31.306 58.7258 30.3206C58.8182 29.0888 59.7113 28.9964 60.6659 29.058C61.6513 29.1504 61.8669 29.8279 61.8669 30.6593C61.8669 31.8911 61.1586 32.1991 60.1116 32.1067Z" fill="#555FA4"/>
<path d="M18.7541 32.9689C16.3828 32.1682 16.2289 30.6285 17.7994 29.0272C18.4153 28.4113 18.4769 28.6576 17.8302 27.9801C15.3974 25.4242 15.8593 24.1308 20.4786 22.745C15.9517 23.2377 15.9825 20.8665 16.5368 18.8957C17.3375 16.0009 19.4931 17.7255 21.1561 18.095C21.5256 18.6185 21.8027 19.1728 22.1107 19.7271C19.7395 23.2685 20.0474 27.395 19.4007 31.306C19.0312 31.7987 19.3392 32.5686 18.7541 32.9689Z" fill="#F7F7FA"/>
<path d="M3.97246 21.8521C9.1152 21.3593 9.48474 21.8213 8.43771 26.6869C8.19135 27.8879 9.91586 27.9802 10.2238 28.9657C10.1006 31.3061 10.6241 35.4634 8.5301 35.3094C5.29664 35.0323 7.26751 31.1521 6.92876 28.8425C6.55923 26.4097 8.43771 22.4064 3.07941 23.7921C3.26418 23.6382 3.32577 23.4534 3.23338 23.2378C3.01782 22.5295 3.32577 22.0984 3.97246 21.8521Z" fill="#F3F3F8"/>
<path d="M10.9629 28.165C10.9321 27.6723 10.8706 27.1488 10.9013 26.6561C10.9629 25.3935 9.33081 23.8537 11.1785 22.9607C12.3179 22.4064 13.8577 22.7451 14.8123 23.5766C16.0749 24.716 16.0441 26.1633 14.8431 27.4875C13.2726 26.1325 12.01 26.5945 10.9629 28.165Z" fill="#F0F0F6"/>
<path d="M18.7541 32.969C18.9697 32.4147 19.1852 31.8604 19.4316 31.3061C19.5855 34.3548 18.9389 37.2495 18.0458 41.1913C15.921 37.8038 15.5206 34.9707 15.613 32.0144C16.8756 32.5071 15.9826 33.8929 16.7832 34.632C17.4299 34.0777 18.0766 33.5234 18.7541 32.969Z" fill="#CCCEE3"/>
<path d="M40.7108 23.6074C40.4336 24.3465 40.1873 25.0856 39.9101 25.8554C39.6945 26.7177 39.0478 27.1488 38.2164 27.3952C35.4756 27.5492 32.8581 28.3806 30.1481 28.6886C29.563 28.5654 28.9779 28.4114 29.1319 27.6108C32.7965 25.7015 36.8614 25.024 40.7108 23.6074Z" fill="#E6E7F1"/>
<path d="M29.1318 27.6106C29.3474 27.8262 29.5322 28.0418 29.7477 28.2573C29.9941 28.5345 30.0865 28.8732 29.9941 29.2428C29.1318 30.7209 29.4706 32.2299 29.7785 33.7388C29.2858 34.2623 28.7931 34.7858 28.3004 35.3093C27.0686 35.7405 28.4851 37.311 27.2226 37.7421C26.6067 37.7113 26.2679 37.3418 25.9908 36.8491C24.1739 34.3239 27.0686 32.2299 26.6374 29.8279C27.0686 28.6269 27.8692 27.857 29.1318 27.6106Z" fill="#838ABC"/>
<path d="M26.6376 29.797C28.824 32.0758 24.6975 34.2315 26.5144 36.5103C26.3296 37.2801 25.9293 37.8345 25.0978 37.8345C24.3895 37.8345 24.02 37.4341 24.0816 36.7258C24.5435 34.2623 25.221 31.891 26.6376 29.797Z" fill="#EBECF4"/>
<path d="M36.7998 15.7546C37.97 15.4774 38.709 17.2019 40.0024 16.4321C37.0153 19.6963 33.1968 17.6023 29.7785 18.0334C29.5014 17.9102 29.409 17.787 29.5014 17.6639C29.5938 17.5407 29.6861 17.5099 29.7785 17.5099C30.2713 17.4175 30.7948 17.3251 31.2875 17.2327C32.9812 16.1549 34.7981 15.6006 36.7998 15.7546Z" fill="#E3E4EF"/>
<path d="M24.0816 36.6951C25.0362 38.4812 25.7445 37.0031 26.5144 36.5103C26.8223 36.8491 27.1303 37.1878 27.4382 37.5266C28.5776 37.157 29.9018 36.4488 29.7786 38.666C29.5015 38.82 29.2243 38.9431 28.9472 39.0971C26.7915 38.1117 26.576 41.8686 24.4203 40.8832C24.3279 40.76 24.2355 40.6369 24.174 40.5137C24.4203 39.2203 22.5418 37.9885 24.0816 36.6951Z" fill="#7980B7"/>
<path d="M29.8094 17.4791C29.7786 17.6639 29.7786 17.8487 29.7786 18.0334C27.1302 18.1874 24.5743 18.7417 22.1107 19.7271C21.3716 19.4192 21.1252 18.8341 21.156 18.095C23.9892 17.202 26.8839 17.1712 29.8094 17.4791Z" fill="#BFC2DC"/>
<path d="M84.1623 37.9578C83.7312 40.0519 83.5156 42.4231 80.9904 42.6694C79.1735 42.8542 78.8656 41.0989 79.0503 39.6207C79.3275 37.5883 79.6662 35.3095 82.3146 35.1863C83.9159 35.1555 84.1315 36.6952 84.1623 37.9578Z" fill="#F5F5F9"/>
<path d="M10.3471 18.249C10.963 18.095 11.6097 18.0027 12.2256 17.7563C12.7799 17.5407 13.2726 17.2328 13.7961 16.9556C13.2726 16.6169 12.7799 16.2473 12.2564 15.9086C13.3034 14.8308 14.412 14.8924 15.5206 15.7854C15.5514 16.5553 15.7362 17.3252 15.5822 18.0334C15.2435 19.5424 16.8756 21.9752 13.365 22.1292C10.1315 22.2523 10.4703 20.2199 10.3471 18.249Z" fill="#E5E6F1"/>
<path d="M25.3134 16.5552C23.4042 16.8632 22.5419 16.3089 22.5727 14.3688C22.6035 12.7059 22.8806 11.782 24.8823 11.8128C26.6068 11.8436 27.4383 12.2747 27.4383 14.1532C27.4075 15.8162 27.2843 17.0479 25.3134 16.5552Z" fill="#FEFEFE"/>
<path d="M31.3183 16.5861C29.409 16.8633 28.516 15.9086 28.3312 14.1225C28.2388 13.1679 27.8385 12.0901 29.1319 11.505C30.764 10.7659 31.965 11.2894 32.9196 12.6752C33.0428 12.8291 33.1968 12.9831 33.32 13.1371C33.7819 14.954 33.8127 16.4937 31.3183 16.5861Z" fill="#F4F4F9"/>
<path d="M15.5514 15.7547C14.4736 15.7855 13.365 15.8471 12.2872 15.8779C11.6097 15.6315 10.5626 16.0934 10.3163 14.9232C10.4395 13.599 10.9322 12.4288 11.6713 11.3202C12.1024 10.8583 12.5951 10.5503 13.211 10.3656C17.3067 10.5195 17.6763 11.197 15.8286 14.9848C15.7054 15.262 15.613 15.5083 15.5514 15.7547Z" fill="#F2F3F8"/>
<path d="M17.245 11.9669C18.5384 11.9361 19.8318 11.9053 21.1252 11.8745C21.2175 13.445 22.2646 15.4467 20.4477 16.2782C19.3698 16.7709 17.0294 17.5716 16.4751 14.954C16.044 13.8146 16.5983 12.8907 17.245 11.9669Z" fill="#FEFEFE"/>
<path d="M22.6343 10.3656C23.3426 8.76428 20.879 5.53082 25.0363 5.654C25.9293 7.16294 27.2535 8.79507 26.1141 10.458C25.4674 11.4126 23.8045 11.1971 22.6343 10.3656Z" fill="#F2F3F8"/>
<path d="M37.4465 13.4451C37.5389 14.1226 37.6621 14.8309 36.8306 15.1696C33.5664 17.2945 33.5356 14.4613 32.8581 12.6136L32.9197 12.6752C32.8889 11.7822 33.1045 10.9815 33.7511 10.304C33.9667 9.96529 34.0283 9.50336 34.521 9.41098C34.7674 9.47257 34.9829 9.53416 35.2293 9.56495C35.6296 11.0739 36.3071 12.3981 37.4465 13.4451Z" fill="#F0F0F6"/>
<path d="M28.9471 5.65391C28.9471 7.37842 30.9796 8.24068 30.8872 10.15C26.1756 11.1662 27.3458 7.37842 26.6991 5.1304C27.4074 3.80622 28.0849 4.66847 28.7624 5.16119C28.7931 5.31517 28.8855 5.49993 28.9471 5.65391Z" fill="#F4F4F8"/>
<path d="M17.245 11.9668C17.245 13.0446 17.2142 14.0916 16.4752 14.9847C16.2596 14.9847 16.0132 14.9847 15.7977 15.0155C16.4444 12.2747 16.2596 10.2115 12.5334 11.1353C12.1639 10.3038 12.595 9.78033 13.1801 9.3184C14.5043 8.85648 15.8901 9.01046 17.2142 8.79489C17.4298 8.79489 17.6762 8.79489 17.8917 8.79489C18.4152 9.28761 18.4768 9.81112 18.0149 10.3654C17.7378 10.8889 17.4914 11.4432 17.245 11.9668Z" fill="#6E76B1"/>
<path d="M32.8582 12.6442C33.9052 13.9068 34.09 16.5244 36.8307 15.2002C36.8307 15.385 36.8307 15.5697 36.7999 15.7545C35.1986 17.1095 33.3201 17.3558 31.3184 17.2019C31.3184 16.9863 31.3184 16.8015 31.3184 16.586C33.4125 15.8777 32.6118 14.0608 32.8582 12.6442Z" fill="#6C74B0"/>
<path d="M34.4903 9.41096C34.244 9.71891 33.9668 10.0269 33.7204 10.304C31.2876 9.59573 31.2261 6.48545 28.9164 5.62319L28.978 5.68478C28.8549 5.19206 29.0396 4.76094 29.5323 4.60696C30.0251 4.45299 30.3946 4.76094 30.5178 5.25365C31.842 6.67022 33.1661 8.05599 34.4903 9.41096Z" fill="#F2F3F8"/>
<path d="M30.5176 5.31509C29.9017 5.06873 29.2858 4.88396 28.9779 5.74621C28.208 5.56144 27.4381 5.34588 26.6683 5.16111C26.3911 4.32965 26.1139 3.46739 25.8368 2.63593C28.1156 2.26639 29.4398 3.59057 30.5176 5.31509Z" fill="#414C99"/>
<path d="M4.77319 18.9573C5.75863 18.8957 6.77486 18.8341 7.76029 18.7725C8.8997 18.8649 9.82355 19.2652 9.30004 20.5894C8.8997 21.544 8.06824 20.9897 7.39076 20.7742C6.31294 20.4354 5.17353 20.2506 4.77319 18.9573Z" fill="#F9FAFC"/>
<path d="M3.9725 21.8521C3.72614 22.314 3.47978 22.776 3.23342 23.2379C1.78606 24.0386 1.75527 22.9607 1.81686 22.0677C1.84765 21.3594 1.97083 20.4663 3.04865 20.4971C3.88011 20.5279 3.9725 21.1746 3.9725 21.8521Z" fill="#FDFDFE"/>
<path d="M29.7787 33.7079C27.4691 32.0758 27.7462 30.4437 29.7787 28.8115C31.1644 28.75 32.9813 26.4096 33.8128 29.0271C34.4287 30.9364 33.9052 33.1228 31.1336 33.4924C30.7025 33.5848 30.2406 33.6463 29.7787 33.7079Z" fill="#EBECF4"/>
<path d="M31.1645 33.4925C33.7205 32.661 32.5195 30.3514 33.4125 28.5037C31.9652 28.6269 30.8565 28.7193 29.7787 28.8117C29.7787 28.6269 29.7479 28.4114 29.7479 28.2266C32.5195 27.3335 35.2602 26.3481 38.2473 26.6868C38.4629 26.8408 38.5553 27.0564 38.5245 27.2719C38.4937 27.4875 38.4629 27.6107 38.4013 27.6107C36.1841 28.7501 34.3056 30.1051 35.2602 33.0614C33.9976 34.2008 32.5503 33.6157 31.1645 33.4925Z" fill="#676FAD"/>
<path d="M35.2909 33.0614C33.7204 32.4455 33.7512 31.4601 34.1207 29.9511C34.7058 27.5492 36.5227 27.6107 38.3088 27.3644C39.7562 27.272 39.5714 28.0419 39.1711 28.9349C38.6475 30.6286 35.9992 30.721 36.0608 32.8767H35.6604L35.2909 33.0614Z" fill="#FAFAFC"/>
<path d="M29.7786 38.666C29.4091 37.4342 28.362 37.619 27.4382 37.5266C27.7461 36.7875 26.6375 35.4941 28.3312 35.3094C28.3312 37.2802 29.6246 36.9723 30.6101 36.3564C31.9034 35.5249 33.5664 34.6935 34.1207 36.3872C34.7674 38.358 32.3654 37.8345 31.2568 38.3273C30.7948 38.512 30.2713 38.5428 29.7786 38.666Z" fill="#CDCFE4"/>
<path d="M34.3977 40.8215C34.2438 41.961 33.5971 42.7308 32.4577 42.854C31.4722 42.9772 30.5484 42.5461 30.61 41.4374C30.7332 39.9285 32.1497 39.9901 33.2583 39.7437C34.059 39.5898 34.4285 40.0209 34.3977 40.8215Z" fill="#E5E6F1"/>
<path d="M24.4204 40.8525C26.2989 41.1912 26.3297 36.9415 28.9473 39.0664C28.1158 39.6515 27.3767 40.2982 27.4383 41.4684C26.4837 41.0681 24.9131 43.624 24.4204 40.8525Z" fill="#E8E9F3"/>
<path d="M37.6004 7.22454C37.7852 9.2262 36.3071 8.67189 35.2292 8.73348C33.9974 7.31692 32.7656 5.93115 31.4415 4.39141C34.4286 3.71392 35.6604 6.2391 37.6004 7.22454Z" fill="#F8F9FB"/>
<path d="M17.9841 10.3347C17.9533 9.81121 17.9226 9.2877 17.861 8.76419C18.1689 7.77875 18.5077 6.79332 18.8156 5.77708C21.31 5.13039 21.2176 6.73172 21.2484 8.42544C21.31 11.1046 19.4007 10.2423 17.9841 10.3347Z" fill="#FBFCFD"/>
<path d="M11.7021 12.3363C11.8253 13.5373 11.425 14.4303 10.2856 14.9539C8.12993 13.7529 7.36006 11.9668 7.94517 9.56476C8.19152 9.56476 8.46868 9.53397 8.71504 9.50317C10.9323 9.19522 12.5952 9.41079 11.7021 12.3363Z" fill="#F4F5F9"/>
<path d="M17.2143 8.79501C16.2596 10.9199 14.8123 10.0884 13.3649 9.4417C12.8414 8.61024 13.2417 7.90196 13.5805 7.16288C13.7653 6.88573 14.0424 6.73175 14.3812 6.73175C15.6745 6.76255 16.1673 4.39135 17.4606 5.37678C18.6308 6.26983 16.6908 7.56322 17.2143 8.79501Z" fill="#F4F5F9"/>
<path d="M14.4119 6.73169L14.1348 6.91646C12.9338 7.74792 13.1801 11.9668 10.1622 8.61018C10.9321 7.65554 11.6712 6.6701 12.4411 5.71546C12.9338 6.39295 14.997 4.02174 14.4119 6.73169Z" fill="#D9DAEA"/>
<path d="M39.1402 28.9656C39.1094 28.2881 38.9554 27.703 38.2779 27.3951C38.3395 27.1487 38.3395 26.9331 38.2471 26.7176C38.8014 26.4404 39.3557 26.1325 39.9101 25.8553C41.2034 25.4242 42.7124 25.5166 43.7286 24.3464C44.0982 27.1795 43.3899 29.4275 40.3412 30.3514C39.0478 30.7209 39.2634 29.6739 39.1402 28.9656Z" fill="#EEEFF5"/>
<path d="M10.1622 8.61019C12.6258 10.6734 12.8414 7.53237 14.1347 6.91647C14.5659 7.9635 13.7036 8.64099 13.3649 9.44165C13.0877 9.99596 12.7798 10.5811 12.5026 11.1354C12.2255 11.5357 11.9791 11.936 11.7019 12.3364C11.7327 10.3039 10.5009 9.62642 8.71484 9.53404C8.93041 8.79496 9.63869 8.85655 10.1622 8.61019Z" fill="#6D75B1"/>
</svg>
 