<svg width="40" height="26" viewBox="0 0 40 26" fill="none" xmlns="http://www.w3.org/2000/svg">
<path d="M25.4084 3.57845H14.5922V23.0149H25.4084V3.57845Z" fill="#FF5F00"/>
<path d="M15.279 13.2967C15.2773 11.4248 15.7015 9.57706 16.5195 7.89337C17.3374 6.20967 18.5277 4.73413 20.0003 3.57845C18.1768 2.14514 15.9867 1.25379 13.6805 1.00627C11.3743 0.758747 9.045 1.16504 6.9588 2.17873C4.8726 3.19242 3.1137 4.7726 1.88313 6.73864C0.652568 8.70469 0 10.9773 0 13.2967C0 15.616 0.652568 17.8886 1.88313 19.8547C3.1137 21.8207 4.8726 23.4009 6.9588 24.4146C9.045 25.4283 11.3743 25.8346 13.6805 25.587C15.9867 25.3395 18.1768 24.4482 20.0003 23.0149C18.5278 21.8592 17.3374 20.3836 16.5195 18.6999C15.7015 17.0162 15.2773 15.1685 15.279 13.2967Z" fill="#EB001B"/>
<path d="M40 13.2966C40.0001 15.616 39.3476 17.8886 38.1171 19.8546C36.8866 21.8207 35.1277 23.4008 33.0416 24.4145C30.9554 25.4282 28.6261 25.8346 26.32 25.587C24.0138 25.3395 21.8238 24.4482 20.0003 23.0149C21.4716 21.858 22.661 20.3822 23.4788 18.6988C24.2966 17.0154 24.7216 15.1682 24.7216 13.2966C24.7216 11.4251 24.2966 9.57794 23.4788 7.89451C22.661 6.21107 21.4716 4.7353 20.0003 3.57845C21.8238 2.14514 24.0138 1.25378 26.32 1.00626C28.6261 0.758746 30.9554 1.16506 33.0416 2.17876C35.1277 3.19246 36.8866 4.77264 38.1171 6.73868C39.3476 8.70473 40.0001 10.9773 40 13.2966Z" fill="#F79E1B"/>
<path d="M38.8207 20.9562V20.5583H38.9811V20.4772H38.5725V20.5583H38.733V20.9562H38.8207ZM39.614 20.9562V20.4765H39.4888L39.3447 20.8065L39.2006 20.4765H39.0752V20.9562H39.1637V20.5943L39.2988 20.9064H39.3905L39.5256 20.5935V20.9562H39.614Z" fill="#F79E1B"/>
</svg>