<svg width="88" height="22" viewBox="0 0 88 22" fill="none" xmlns="http://www.w3.org/2000/svg">
<path d="M33.2082 9.77174C32.9823 11.466 31.6268 11.466 30.3843 11.466H29.7066L30.2714 8.19039C30.2714 7.96448 30.4973 7.85153 30.7232 7.85153H31.0621C31.9657 7.85153 32.7564 7.85153 33.2082 8.30334C33.2082 8.75516 33.2082 9.20697 33.2082 9.77174ZM32.6434 5.2536H27.7864C27.4475 5.2536 27.2217 5.47951 27.1087 5.81837L25.1885 18.2432C25.1885 18.4691 25.3014 18.6951 25.6403 18.6951H27.8994C28.2382 18.6951 28.4641 18.4692 28.5771 18.1303L29.1418 14.7417C29.1418 14.4028 29.4807 14.1769 29.8196 14.1769H31.4009C34.5636 14.1769 36.3709 12.5956 36.9356 9.54583C37.1615 8.19039 36.9356 7.17381 36.3709 6.38314C35.4672 5.70541 34.2248 5.2536 32.6434 5.2536Z" fill="#263577"/>
<path d="M43.8257 14.2899C43.5998 15.6454 42.5832 16.549 41.2278 16.549C40.5501 16.549 39.9853 16.3231 39.6464 15.8713C39.3076 15.4195 39.1946 14.8547 39.3076 14.2899C39.5335 12.9345 40.5501 12.0309 41.9055 12.0309C42.5832 12.0309 43.148 12.2568 43.4868 12.7086C43.7128 13.0475 43.9386 13.6122 43.8257 14.2899ZM46.9884 9.77181H44.7293C44.5034 9.77181 44.3905 9.88476 44.2775 10.1107L44.1646 10.7884L44.0516 10.5625C43.5998 9.88476 42.4703 9.5459 41.3407 9.5459C38.7428 9.5459 36.5967 11.4661 36.1449 14.177C35.919 15.5324 36.2578 16.7749 37.0485 17.6785C37.7262 18.4692 38.7428 18.8081 39.9853 18.8081C42.0184 18.8081 43.148 17.4526 43.148 17.4526L43.035 18.1304C43.035 18.3563 43.148 18.5822 43.4868 18.5822H45.52C45.8589 18.5822 46.0848 18.3563 46.1977 18.0174L47.4402 10.1107C47.4402 9.99771 47.3273 9.77181 46.9884 9.77181Z" fill="#263577"/>
<path d="M59.3007 9.77173H56.9286C56.7027 9.77173 56.4768 9.88468 56.3639 10.1106L53.2012 14.8546L51.8457 10.3365C51.7328 9.99764 51.5069 9.88468 51.168 9.88468H48.9089C48.683 9.88468 48.4571 10.1106 48.5701 10.4494L51.168 17.9044L48.796 21.293C48.5701 21.5189 48.796 21.9707 49.1349 21.9707H51.5069C51.7328 21.9707 51.9587 21.8577 52.0716 21.6318L59.7525 10.4494C59.8654 10.1106 59.6395 9.77173 59.3007 9.77173Z" fill="#263577"/>
<path d="M67.5461 9.77174C67.3202 11.466 65.9647 11.466 64.7222 11.466H64.0445L64.6093 8.19039C64.6093 7.96448 64.8352 7.85153 65.0611 7.85153H65.4C66.3036 7.85153 67.0943 7.85153 67.5461 8.30334C67.659 8.75516 67.659 9.20697 67.5461 9.77174ZM66.9813 5.2536H62.1243C61.7855 5.2536 61.5595 5.47951 61.4466 5.81837L59.5264 18.2432C59.5264 18.4691 59.6393 18.6951 59.9782 18.6951H62.4632C62.6891 18.6951 62.915 18.5821 62.915 18.2432L63.4797 14.7417C63.4797 14.4028 63.8186 14.1769 64.1575 14.1769H65.7388C68.9015 14.1769 70.7088 12.5956 71.2735 9.54583C71.4995 8.19039 71.2735 7.17381 70.7088 6.38314C69.9181 5.70541 68.6756 5.2536 66.9813 5.2536Z" fill="#2199D6"/>
<path d="M78.2769 14.2899C78.051 15.6454 77.0344 16.549 75.679 16.549C75.0012 16.549 74.4365 16.3231 74.0976 15.8713C73.7588 15.4195 73.6458 14.8547 73.7587 14.2899C73.9846 12.9345 75.0012 12.0309 76.3567 12.0309C77.0344 12.0309 77.5992 12.2568 77.938 12.7086C78.1639 13.0475 78.3898 13.6122 78.2769 14.2899ZM81.4396 9.77181H79.1805C78.9546 9.77181 78.8416 9.88476 78.7287 10.1107L78.6157 10.7884L78.5028 10.5625C78.051 9.88476 76.9214 9.5459 75.7919 9.5459C73.194 9.5459 71.0479 11.4661 70.596 14.177C70.3701 15.5324 70.709 16.7749 71.4997 17.6785C72.1774 18.4692 73.194 18.8081 74.4365 18.8081C76.4696 18.8081 77.5991 17.4526 77.5991 17.4526L77.4862 18.1304C77.4862 18.3563 77.5992 18.5822 77.938 18.5822H79.9712C80.31 18.5822 80.5359 18.3563 80.6489 18.0174L81.8914 10.1107C81.8914 9.99771 81.6655 9.77181 81.4396 9.77181Z" fill="#2199D6"/>
<path d="M84.1504 5.59246L82.1172 18.2432C82.1172 18.4691 82.2302 18.6951 82.569 18.6951H84.6022C84.941 18.6951 85.1669 18.4692 85.2799 18.1303L87.2001 5.70542C87.2001 5.47951 87.0871 5.2536 86.7483 5.2536H84.4892C84.3763 5.2536 84.2633 5.47951 84.1504 5.59246Z" fill="#2199D6"/>
<path d="M5.08293 21.0671L5.42177 18.6951H4.6311H0.677734L3.38863 1.41318C3.38863 1.41318 3.38862 1.30023 3.50157 1.30023H3.61453H10.2788C12.4249 1.30023 14.0062 1.75205 14.7969 2.65567C15.1358 3.10749 15.3617 3.5593 15.4746 4.01112C15.5876 4.57588 15.5876 5.14065 15.4746 5.93132V6.38313L15.8135 6.60904C16.1524 6.722 16.3783 6.9479 16.6042 7.17381C16.943 7.51267 17.1689 7.96448 17.1689 8.52925C17.2819 9.09402 17.2819 9.77174 17.056 10.5624C16.8301 11.466 16.6042 12.1438 16.2653 12.8215C15.9264 13.3862 15.4746 13.8381 15.0228 14.2899C14.571 14.6287 13.8933 14.8546 13.3285 15.0805C12.6508 15.1935 11.9731 15.3065 11.1824 15.3065H10.6176C10.2788 15.3065 9.93992 15.4194 9.60106 15.6453C9.37516 15.8712 9.14925 16.2101 9.0363 16.5489V16.7748L8.35857 20.9541V21.0671V21.18C8.35857 21.18 8.35856 21.18 8.24561 21.18H5.08293V21.0671Z" fill="#263577"/>
<path d="M16.2654 5.93134C16.2654 6.04429 16.2654 6.15725 16.1524 6.2702C15.2488 10.7883 12.312 12.2567 8.4716 12.2567H6.55138C6.09957 12.2567 5.64777 12.5956 5.64777 13.0474L4.63118 19.3728L4.40527 21.18C4.40527 21.5189 4.63117 21.7448 4.85708 21.7448H8.35864C8.81046 21.7448 9.14931 21.406 9.14931 21.0671V20.8412L9.82704 16.7749V16.549C9.93999 16.0971 10.2789 15.8712 10.6177 15.8712H11.1825C14.5711 15.8712 17.169 14.5158 17.8467 10.5624C18.1856 8.86813 17.9597 7.51269 17.169 6.60906C16.9431 6.38315 16.6042 6.15724 16.2654 5.93134Z" fill="#2199D6"/>
<path d="M15.3614 5.59246C15.2485 5.59246 15.1355 5.47951 14.9096 5.47951C14.7967 5.47951 14.5708 5.36655 14.4578 5.36655C13.893 5.2536 13.3283 5.2536 12.7635 5.2536H7.56767C7.45471 5.2536 7.34175 5.2536 7.2288 5.36655C7.00289 5.47951 6.77699 5.70541 6.77699 5.93132L5.64746 12.9344V13.1603C5.76041 12.7085 6.09926 12.3697 6.55107 12.3697H8.4713C12.3117 12.3697 15.2485 10.7883 16.1521 6.38314C16.1521 6.27018 16.1521 6.15723 16.2651 6.04428C16.0392 5.93132 15.8133 5.81837 15.5873 5.70542C15.4744 5.59246 15.3614 5.59246 15.3614 5.59246Z" fill="#252C5E"/>
<path d="M6.7772 5.93136C6.7772 5.70546 7.0031 5.47955 7.22901 5.3666C7.34196 5.3666 7.45492 5.25365 7.56787 5.25365H12.7637C13.3285 5.25365 14.0062 5.25364 14.458 5.3666C14.571 5.3666 14.7969 5.3666 14.9098 5.47955C15.0228 5.47955 15.1357 5.5925 15.3617 5.5925C15.4746 5.5925 15.4746 5.59251 15.5876 5.70546C15.8135 5.81841 16.0394 5.93137 16.2653 6.04432C16.4912 4.35002 16.2653 3.22048 15.3617 2.2039C14.3451 1.07437 12.5378 0.622559 10.2787 0.622559H3.61451C3.16269 0.622559 2.71087 0.961415 2.71087 1.41323L0 18.8081C0 19.1469 0.225907 19.4858 0.564767 19.4858H4.63108L5.64767 12.9345L6.7772 5.93136Z" fill="#263577"/>
</svg>