<svg width="16" height="18" viewBox="0 0 16 18" fill="none" xmlns="http://www.w3.org/2000/svg">
<path d="M15.3324 8.33736C15.1553 8.33736 14.9855 8.26702 14.8603 8.14182C14.7351 8.01661 14.6647 7.8468 14.6647 7.66973C14.6633 6.25362 14.1001 4.89591 13.0988 3.89457C12.0975 2.89322 10.7397 2.33005 9.32364 2.32864C9.14657 2.32864 8.97675 2.2583 8.85155 2.13309C8.72634 2.00788 8.656 1.83807 8.656 1.661C8.656 1.48393 8.72634 1.31411 8.85155 1.18891C8.97675 1.0637 9.14657 0.993362 9.32364 0.993362C11.0937 0.995306 12.7908 1.69933 14.0424 2.95097C15.294 4.20261 15.9981 5.89964 16 7.66973C16 7.8468 15.9297 8.01661 15.8045 8.14182C15.6792 8.26702 15.5094 8.33736 15.3324 8.33736ZM13.3295 7.66973C13.3295 6.60732 12.9074 5.58842 12.1562 4.83719C11.4049 4.08595 10.386 3.66391 9.32364 3.66391C9.14657 3.66391 8.97675 3.73425 8.85155 3.85945C8.72634 3.98466 8.656 4.15448 8.656 4.33154C8.656 4.50861 8.72634 4.67843 8.85155 4.80363C8.97675 4.92884 9.14657 4.99918 9.32364 4.99918C10.0319 4.99918 10.7112 5.28054 11.212 5.78137C11.7128 6.28219 11.9942 6.96145 11.9942 7.66973C11.9942 7.8468 12.0645 8.01661 12.1897 8.14182C12.3149 8.26702 12.4847 8.33736 12.6618 8.33736C12.8389 8.33736 13.0087 8.26702 13.1339 8.14182C13.2591 8.01661 13.3295 7.8468 13.3295 7.66973ZM14.7869 15.7909L15.3945 15.0905C15.7812 14.7026 15.9983 14.1771 15.9983 13.6294C15.9983 13.0816 15.7812 12.5562 15.3945 12.1683C15.3738 12.1476 13.7674 10.9118 13.7674 10.9118C13.3819 10.5448 12.8698 10.3404 12.3375 10.3412C11.8053 10.3419 11.2938 10.5477 10.9093 10.9158L9.63676 11.988C8.59803 11.5581 7.65447 10.9272 6.86025 10.1316C6.06603 9.33605 5.4368 8.3914 5.0087 7.35193L6.07692 6.08342C6.44527 5.69898 6.65129 5.18737 6.65216 4.65495C6.65303 4.12253 6.44868 3.61025 6.08159 3.2246C6.08159 3.2246 4.84446 1.62027 4.82377 1.59958C4.44285 1.21618 3.92638 0.99805 3.38596 0.992304C2.84554 0.986557 2.32456 1.19366 1.93557 1.56886L1.16779 2.2365C-3.36813 7.49881 6.39939 17.1909 11.8353 17.0166C12.3842 17.0198 12.9282 16.913 13.4351 16.7025C13.9421 16.4919 14.4017 16.182 14.7869 15.7909Z" fill="#52525B"/>
</svg>
