<svg width="24" height="25" viewBox="0 0 24 25" fill="none" xmlns="http://www.w3.org/2000/svg">
<rect y="0.992188" width="24" height="24" rx="12" fill="#1E40AF"/>
<path fill-rule="evenodd" clip-rule="evenodd" d="M15.7112 24.4066C14.5424 24.7867 13.295 24.9922 12 24.9922C10.704 24.9922 9.45585 24.7864 8.28636 24.4058C8.82659 24.4706 9.02622 24.1188 9.02622 23.8151C9.02622 23.6829 9.02396 23.4497 9.02094 23.1378C9.01745 22.7768 9.01294 22.3104 9.00972 21.773C5.67147 22.4987 4.96722 20.1631 4.96722 20.1631C4.42197 18.7762 3.63522 18.4069 3.63522 18.4069C2.54547 17.6616 3.71772 17.6767 3.71772 17.6767C4.92147 17.7616 5.55522 18.9143 5.55522 18.9143C6.62622 20.7494 8.36397 20.2196 9.04797 19.9118C9.15672 19.1358 9.46722 18.6065 9.80997 18.3064C7.14522 18.0032 4.34397 16.9735 4.34397 12.3721C4.34397 11.0608 4.81122 9.98922 5.57922 9.14934C5.45547 8.84546 5.04372 7.62507 5.69622 5.97166C5.69622 5.97166 6.70422 5.6489 8.99622 7.20251C9.95397 6.93601 10.98 6.80332 12.0007 6.7979C13.02 6.80313 14.0467 6.93601 15.0052 7.20251C17.2957 5.6489 18.3015 5.97166 18.3015 5.97166C18.9562 7.62507 18.5445 8.84546 18.4207 9.14934C19.1902 9.98922 19.6545 11.0608 19.6545 12.3721C19.6545 16.9847 16.8487 18.0002 14.1757 18.2974C14.6062 18.6682 14.9902 19.4006 14.9902 20.5212C14.9902 21.5947 14.9835 22.5292 14.9791 23.1484C14.9769 23.4553 14.9752 23.6847 14.9752 23.8153C14.9752 24.1204 15.17 24.4729 15.7112 24.4066Z" fill="white"/>
</svg>
