<svg width="24" height="25" viewBox="0 0 24 25" fill="none" xmlns="http://www.w3.org/2000/svg">
<rect y="0.992188" width="24" height="24" rx="12" fill="#1E40AF"/>
<path d="M17.8812 10.3984C17.8812 10.5297 17.8812 10.6609 17.8812 10.7734C17.8812 14.6547 14.9187 19.1359 9.51875 19.1359C7.85 19.1359 6.3125 18.6484 5 17.8234C5.225 17.8422 5.46875 17.8609 5.69375 17.8609C7.0625 17.8609 8.3375 17.3922 9.35 16.6047C8.05625 16.5859 6.96875 15.7234 6.6125 14.5609C6.8 14.5984 6.96875 14.6172 7.175 14.6172C7.4375 14.6172 7.7 14.5797 7.94375 14.5047C6.59375 14.2422 5.58125 13.0609 5.58125 11.6359C5.58125 11.6172 5.58125 11.6172 5.58125 11.5984C5.975 11.8234 6.425 11.9547 6.9125 11.9734C6.125 11.4484 5.6 10.5484 5.6 9.51719C5.6 8.97344 5.75 8.46719 5.99375 8.03594C7.4375 9.81719 9.6125 10.9797 12.05 11.1109C11.9937 10.9047 11.975 10.6609 11.975 10.4359C11.975 8.80469 13.2875 7.49219 14.9187 7.49219C15.7625 7.49219 16.5312 7.84844 17.0562 8.41094C17.7312 8.27969 18.35 8.03594 18.9312 7.69844C18.7062 8.39219 18.2375 8.95469 17.6375 9.32969C18.2375 9.25469 18.8 9.10469 19.325 8.86094C18.95 9.46094 18.4625 9.98594 17.8812 10.3984Z" fill="white"/>
</svg>
