<svg width="24" height="25" viewBox="0 0 24 25" fill="none" xmlns="http://www.w3.org/2000/svg">
<rect y="0.992188" width="24" height="24" rx="12" fill="#1E40AF"/>
<path d="M5.39368 12.7277C8.88334 11.1753 11.2103 10.1519 12.3746 9.65746C15.699 8.24569 16.3897 8.00045 16.84 7.99227C16.939 7.99057 17.1604 8.01563 17.3038 8.13445C17.4249 8.23478 17.4583 8.37032 17.4742 8.46544C17.4901 8.56057 17.51 8.77726 17.4942 8.94659C17.3141 10.8792 16.5346 15.5691 16.138 17.7337C15.9702 18.6496 15.6398 18.9567 15.3199 18.9867C14.6248 19.0521 14.0969 18.5177 13.4236 18.0671C12.3701 17.3619 11.7749 16.923 10.7522 16.2349C9.57034 15.4397 10.3365 15.0026 11.01 14.2883C11.1863 14.1014 14.2492 11.257 14.3084 10.9989C14.3159 10.9666 14.3227 10.8464 14.2527 10.7828C14.1828 10.7193 14.0794 10.741 14.0049 10.7583C13.8992 10.7828 12.2162 11.9186 8.95566 14.1658C8.47792 14.5008 8.04521 14.664 7.6575 14.6554C7.23009 14.646 6.40793 14.4087 5.79673 14.2058C5.04708 13.957 4.45127 13.8255 4.50315 13.4029C4.53017 13.1828 4.82702 12.9577 5.39368 12.7277Z" fill="white"/>
</svg>
