<svg width="24" height="25" viewBox="0 0 24 25" fill="none" xmlns="http://www.w3.org/2000/svg">
<rect y="0.992188" width="24" height="24" rx="12" fill="#1E40AF"/>
<path fill-rule="evenodd" clip-rule="evenodd" d="M19.6329 9.25961C19.7442 8.88878 19.6329 8.61621 19.1035 8.61621H17.3531C16.908 8.61621 16.703 8.85164 16.5917 9.11133C16.5917 9.11133 15.7015 11.281 14.4404 12.6903C14.0325 13.0983 13.847 13.2279 13.6245 13.2279C13.5132 13.2279 13.3522 13.0983 13.3522 12.7274V9.25961C13.3522 8.81451 13.223 8.61621 12.8521 8.61621H10.1014C9.82336 8.61621 9.65607 8.82276 9.65607 9.01856C9.65607 9.44053 10.2865 9.5378 10.3515 10.7246V13.3023C10.3515 13.8674 10.2495 13.97 10.0269 13.97C9.43352 13.97 7.99018 11.7905 7.13398 9.29674C6.96619 8.81201 6.7979 8.61621 6.35055 8.61621H4.60014C4.10002 8.61621 4 8.85164 4 9.11133C4 9.57493 4.59351 11.8745 6.76314 14.9157C8.20973 16.9924 10.2475 18.1184 12.1019 18.1184C13.2146 18.1184 13.3522 17.8684 13.3522 17.4376V15.8679C13.3522 15.3678 13.4576 15.268 13.8098 15.268C14.0696 15.268 14.5146 15.3978 15.5532 16.3992C16.74 17.5858 16.9355 18.1184 17.6032 18.1184H19.3536C19.8537 18.1184 20.1038 17.8684 19.9595 17.3749C19.8017 16.883 19.2351 16.1696 18.4831 15.3237C18.0752 14.8414 17.4631 14.3222 17.2778 14.0626C17.0182 13.7288 17.0923 13.5805 17.2778 13.2839C17.2778 13.2839 19.4103 10.2797 19.6329 9.25974V9.25961Z" fill="white"/>
</svg>
