<svg width="160" height="26" viewBox="0 0 160 26" fill="none" xmlns="http://www.w3.org/2000/svg">
<path d="M9.23825 13.4722C10.2889 9.51372 9.09011 5.36436 6.22148 3.16557C2.31375 5.64452 0.0602003 10.3064 0.8742 15.1631C1.14274 16.7686 1.7238 18.2439 2.54147 19.5371C5.59593 18.6846 8.28292 17.0702 9.23825 13.4722ZM14.5123 24.8985C20.9615 23.8135 25.3099 17.6935 24.2263 11.2319C23.325 5.85431 18.9497 1.93422 13.7909 1.39268C12.7492 1.28362 11.6735 1.31304 10.5888 1.49503C9.30212 1.71113 8.10337 2.12991 7.01087 2.7112C12.6942 4.64297 15.7502 7.58046 15.9622 10.5893C16.0669 12.4481 15.2043 13.7917 14.0726 14.8867L22.1104 14.3242C22.3367 14.3085 22.4089 14.574 22.1324 14.6532L2.96286 20.162C4.91437 22.856 7.94528 24.6477 11.3096 25.0008C12.3514 25.1099 13.4271 25.0821 14.5123 24.8985ZM13.8642 0.686079C20.1788 1.34447 25.1021 6.6912 25.1047 13.192C25.1073 20.1405 19.489 25.7747 12.5571 25.7773C5.62368 25.7799 0.00157133 20.1489 9.14108e-07 13.2015C-0.00261645 6.25308 5.61583 0.618385 12.5476 0.616236C12.9916 0.616236 13.4312 0.640949 13.8642 0.686079Z" fill="white"/>
<path d="M0.874204 15.1631C1.14275 16.7686 1.7238 18.2439 2.54147 19.5371C5.59593 18.6846 8.28292 17.0702 9.23826 13.4722C10.2889 9.51372 9.09011 5.36436 6.22148 3.16557C2.31375 5.64453 0.060204 10.3064 0.874204 15.1631ZM24.2263 11.2319C25.3099 17.6935 20.9615 23.8135 14.5123 24.8985C13.4271 25.0821 12.3514 25.1099 11.3096 25.0008C7.94528 24.6477 4.91437 22.856 2.96287 20.162L22.1324 14.6532C22.4089 14.574 22.3367 14.3085 22.1105 14.3242L14.0726 14.8867C15.2043 13.7917 16.0669 12.4481 15.9622 10.5893C15.7502 7.58047 12.6942 4.64298 7.01088 2.7112C8.10337 2.12991 9.30213 1.71113 10.5888 1.49503C11.6735 1.31304 12.7492 1.28362 13.7909 1.39268C18.9497 1.93422 23.325 5.85432 24.2263 11.2319Z" fill="#CF181F"/>
<path d="M80.4005 16.4592V13.0139H76.9536V16.4592H75.0613V8.25266H76.9536V11.5227H80.4005V8.25266H82.306V16.4592H80.4005Z" fill="#231F20"/>
<path d="M39.6245 8.25277V13.3911C39.6245 13.9583 39.7082 14.4496 39.873 14.8494C40.0365 15.2462 40.2728 15.5753 40.5772 15.8287C40.8846 16.084 41.2539 16.2732 41.6768 16.3894C42.1064 16.5079 42.5917 16.5686 43.1179 16.5686C43.6455 16.5686 44.1252 16.5079 44.5459 16.3894C44.9601 16.2732 45.3133 16.0853 45.5968 15.8314C45.8793 15.5783 46.1017 15.2488 46.2565 14.8516C46.4121 14.453 46.4919 13.9618 46.4919 13.3911V8.25277H44.7204V13.3365C44.7204 13.8535 44.593 14.2721 44.3402 14.5789C44.0815 14.8914 43.6709 15.05 43.1179 15.05C42.5764 15.05 42.1688 14.8922 41.9058 14.5798C41.6477 14.2739 41.5169 13.8552 41.5169 13.3365V8.25277H39.6245Z" fill="#231F20"/>
<path d="M34.1672 16.4606V9.78576H31.9421V8.25275H38.2973V8.98732C38.2973 9.42788 37.9398 9.78576 37.5016 9.78576H36.0596V16.4606H34.1672Z" fill="#231F20"/>
<path d="M64.5769 16.4592V8.25176H66.4693V16.4592H64.5769Z" fill="#231F20"/>
<path d="M58.2754 12.6329L58.3396 12.7141L60.7565 15.8357C61.0639 16.2338 61.5283 16.4615 62.0297 16.4615H63.537L60.0741 12.0464L60.0227 11.9822L60.0741 11.9166L62.9214 8.24971H60.9514L58.3408 11.7873L58.2754 11.8725L58.2742 11.7243V8.24971H56.3818V16.4571H58.2742V12.7784L58.2754 12.6329Z" fill="#231F20"/>
<path d="M50.1311 12.0088H51.2342C51.631 12.0088 51.9341 11.8996 52.1338 11.6846C52.3309 11.4717 52.4311 11.1951 52.4311 10.863C52.4311 10.5226 52.333 10.2415 52.1411 10.0292C51.9462 9.81283 51.6411 9.70364 51.2342 9.70364H50.1311V12.0088ZM53.9149 16.458C53.3546 16.458 52.8257 16.16 52.5357 15.6797L51.0642 13.2434H50.1311V16.458H48.24V8.25274H51.6114C52.4782 8.25274 53.1562 8.47951 53.6281 8.92611C54.0981 9.37193 54.3365 9.98332 54.3365 10.7415C54.3365 11.1265 54.2341 11.5168 54.0327 11.9013C53.833 12.2793 53.4798 12.5883 52.9819 12.8208L52.8728 12.8715L55.1694 16.458H53.9149Z" fill="#231F20"/>
<path d="M68.0232 16.111V14.5373C68.6257 14.8153 69.4019 15.0932 70.2042 15.0932C71.1277 15.0932 71.5964 14.7755 71.5964 14.1672C71.5964 13.4531 70.9673 13.3745 69.7093 12.8321C68.8524 12.4484 68.0363 11.8537 68.0363 10.4788C68.0363 8.87933 69.2536 8.12553 70.9401 8.12553C71.8371 8.12553 72.5993 8.33708 73.0275 8.49572V10.0292C72.5993 9.83071 71.8372 9.59253 71.0741 9.59253C70.2447 9.59253 69.8566 9.89716 69.8566 10.426C69.8566 10.981 70.3254 11.1536 71.1679 11.4705C72.2514 12.0123 73.5093 12.2505 73.5093 14.1012C73.5093 15.7011 72.2382 16.5738 70.5391 16.5738C69.4947 16.5738 68.665 16.3889 68.0232 16.111Z" fill="#231F20"/>
<path d="M126.475 16.4592V8.25176H131.603V8.99595C131.603 9.43035 131.249 9.78432 130.816 9.78432H128.367V11.5495H131.118V12.9195H128.367V14.9275H131.603V16.4592H126.475Z" fill="#231F20"/>
<path d="M107.766 16.458V8.25096H108.686C109.222 8.25096 109.658 8.68883 109.658 9.22549V14.98H112.678V16.458H107.766Z" fill="#231F20"/>
<path d="M96.0518 16.4575V8.25526H97.9441V16.4575H96.0518Z" fill="#231F20"/>
<path d="M101.571 12.0079H102.674C103.072 12.0079 103.374 11.8986 103.575 11.6836C103.772 11.4709 103.871 11.1942 103.871 10.8616C103.871 10.5212 103.774 10.241 103.581 10.0282C103.386 9.81188 103.081 9.70269 102.674 9.70269H101.571V12.0079ZM105.356 16.4575C104.796 16.4575 104.267 16.1586 103.977 15.6788L102.504 13.2424H101.571V16.4575H99.6797V8.2518H103.052C103.918 8.2518 104.597 8.47823 105.068 8.92528C105.539 9.37143 105.777 9.98238 105.777 10.7405C105.777 11.1261 105.675 11.5163 105.472 11.9008C105.273 12.278 104.92 12.5874 104.423 12.8194L104.314 12.8701L106.61 16.4575H105.356Z" fill="#231F20"/>
<path d="M89.5487 13.4684L90.2912 11.3939C90.4568 10.9272 90.6226 10.4352 90.7315 10.072H90.7599C90.8558 10.4478 91.0215 10.9146 91.1858 11.3939L91.9022 13.4684H89.5487ZM91.8871 8.25096H89.7134L86.625 16.458H87.9889C88.3343 16.458 88.6395 16.2369 88.7485 15.9082L89.0659 14.9451H92.3871L92.8725 16.458H94.9227L91.8871 8.25096Z" fill="#231F20"/>
<path d="M133.122 16.111V14.5382C133.724 14.8153 134.5 15.0932 135.303 15.0932C136.227 15.0932 136.694 14.7755 136.694 14.1676C136.694 13.4536 136.066 13.3745 134.809 12.8326C133.952 12.4493 133.136 11.8537 133.136 10.4788C133.136 8.87933 134.352 8.12597 136.039 8.12597C136.935 8.12597 137.699 8.33708 138.126 8.49572V10.0292C137.699 9.83161 136.935 9.59343 136.173 9.59343C135.344 9.59343 134.956 9.89761 134.956 10.426C134.956 10.9814 135.423 11.1536 136.267 11.4705C137.351 12.0127 138.609 12.2509 138.609 14.1016C138.609 15.7011 137.337 16.5738 135.638 16.5738C134.594 16.5738 133.764 16.3889 133.122 16.111Z" fill="#231F20"/>
<path d="M117.521 8.25266H118.694C119.251 8.25266 119.767 8.54062 120.062 9.01441L122.346 12.6918C122.604 13.1 122.904 13.6397 123.08 14.0216H123.121C123.094 13.6532 123.08 13.1388 123.08 12.7704V8.25266H124.738V16.4592H122.664L119.886 12.0197C119.628 11.6115 119.356 11.1238 119.165 10.7549H119.139C119.151 11.1107 119.179 11.5324 119.179 11.9275V16.4592H117.521V8.25266Z" fill="#231F20"/>
<path d="M113.895 16.4575V8.25526H115.788V16.4575H113.895Z" fill="#231F20"/>
</svg>
