<svg width="60" height="31" viewBox="0 0 60 31" fill="none" xmlns="http://www.w3.org/2000/svg">
<path fill-rule="evenodd" clip-rule="evenodd" d="M9.65759 19.5472H14.7706L22.4388 0.722716H17.4679L12.3574 13.4665L10.3681 2.60491C10.226 1.59355 9.37339 0.722716 8.23662 0.722716H0V1.30243C1.70516 1.59355 3.26822 2.17075 4.6867 2.89603C5.25508 3.18463 5.64149 3.79697 5.82347 4.48962L9.65759 19.5472ZM20.4512 19.5472H25.28L29.2562 0.722716H24.4274L20.4512 19.5472ZM37.4951 4.34122C36.5004 4.34122 35.6478 4.92093 35.5058 5.93481C35.5058 6.80103 36.5688 7.36756 37.8464 8.04848C39.7707 9.07399 42.1818 10.359 42.1818 13.318C42.1818 17.228 38.9161 19.833 33.661 19.6899C31.9558 19.6899 30.1111 19.3988 28.4059 18.676L29.2585 14.6205C30.8191 15.3458 32.5242 15.78 34.2294 15.78C35.6478 15.78 37.0688 15.2002 37.0688 13.8978C37.2109 13.0294 36.5004 12.4497 34.6557 11.5814C32.9505 10.7106 30.5349 9.26505 30.5349 6.51202C30.5349 2.89318 33.9452 0.285706 38.6319 0.285706C40.0504 0.285706 41.6134 0.576819 43.0344 1.15654L42.1818 5.20954C40.7608 4.48677 39.0582 4.19566 37.4951 4.34122ZM55.2439 0.722716L59.078 19.5472H54.6755L54.1072 16.7967H47.9995L47.0073 19.5472H42.0364L49.1363 2.17075C49.4205 1.30243 50.273 0.722716 51.1256 0.722716H55.2439ZM53.2552 12.8847L51.8367 5.79007L49.279 12.8847H53.2552ZM49.5652 23.3638H50.4025V26.2871H50.4215C50.7201 25.7682 51.258 25.4409 52.0082 25.4409C53.1722 25.4409 53.9799 26.4022 53.9799 27.8059C53.9799 29.4685 52.9221 30.2958 51.8832 30.2958C51.2103 30.2958 50.6707 30.0359 50.3153 29.4299H50.2964L50.2479 30.1897H49.5273C49.5462 29.8723 49.5652 29.4011 49.5652 28.9875V23.3638ZM50.4025 28.3247C50.4025 28.43 50.4116 28.5361 50.4404 28.6314C50.595 29.2177 51.0943 29.6223 51.7104 29.6223C52.6054 29.6223 53.1236 28.9012 53.1236 27.8338C53.1236 26.9013 52.6433 26.1029 51.7302 26.1029C51.1618 26.1029 50.6238 26.5074 50.4503 27.1414C50.4215 27.2475 50.4025 27.3626 50.4025 27.4975V28.3247ZM39.6286 23.6723C38.9648 23.6723 38.3594 23.7299 37.8485 23.8162V30.1808C38.2713 30.2285 38.7616 30.2573 39.3687 30.2573C40.6289 30.2573 41.6291 29.93 42.2444 29.3248C42.8399 28.7286 43.1772 27.8636 43.1772 26.8061C43.1772 25.7577 42.8399 25.0077 42.2534 24.4798C41.6867 23.961 40.8296 23.6723 39.6286 23.6723ZM39.5315 29.5846C39.205 29.5846 38.8973 29.5748 38.6859 29.546V24.4214C38.9072 24.3737 39.2346 24.3351 39.6664 24.3351C41.4366 24.3351 42.302 25.3062 42.2921 26.8349C42.2921 28.5847 41.3305 29.5846 39.5315 29.5846ZM46.5661 29.6327C45.7098 29.6327 44.9883 29.1624 44.9694 28.0177V28.0169H48.2392C48.2581 27.9207 48.268 27.7957 48.268 27.6222C48.268 26.7678 47.8731 25.4406 46.344 25.4406C44.9883 25.4406 44.1617 26.5368 44.1617 27.9396C44.1617 29.3441 45.0171 30.2963 46.4501 30.2963C47.1904 30.2963 47.7094 30.1327 48.008 29.9978L47.8542 29.3926C47.5466 29.5266 47.1715 29.6327 46.5661 29.6327ZM46.2765 26.0475C47.2291 26.0475 47.4602 26.8829 47.4503 27.4125H47.4495H44.9777C45.0451 26.8262 45.4112 26.0475 46.2765 26.0475ZM55.687 24.75C56.0226 24.75 56.225 24.5198 56.225 24.2312C56.225 23.9335 56.0144 23.7024 55.7059 23.7024C55.3893 23.7024 55.1778 23.9433 55.1778 24.2312C55.1778 24.519 55.3786 24.75 55.687 24.75ZM55.2823 25.5386V30.192H56.1287V25.5386H55.2823ZM58.7885 24.4331V25.549H60.0001V26.1929H58.7885V28.7017C58.7885 29.2781 58.9522 29.6054 59.4227 29.6054C59.6538 29.6054 59.7887 29.5865 59.9129 29.5478L59.9516 30.1917C59.7879 30.2501 59.528 30.3076 59.2014 30.3076C58.8066 30.3076 58.4899 30.1728 58.2875 29.9516C58.0564 29.6917 57.9601 29.2781 57.9601 28.7297V26.192H57.2396V25.5482H57.9601V24.6823L58.7876 24.4323L58.7885 24.4331Z" fill="#1C2F76"/>
</svg>