<svg width="81" height="81" viewBox="0 0 81 81" fill="none" xmlns="http://www.w3.org/2000/svg">
<path d="M2.32495 61L11.825 57" stroke="#1E40AF" stroke-width="0.5"/>
<path d="M1.82495 55L11.825 50.5" stroke="#1E40AF" stroke-width="0.5"/>
<path d="M1.82495 49L11.825 44.5" stroke="#1E40AF" stroke-width="0.5"/>
<path d="M2.82495 66.5L11.825 63" stroke="#1E40AF" stroke-width="0.5"/>
<path d="M68.825 61L78.325 57" stroke="#1E40AF" stroke-width="0.5"/>
<path d="M68.825 55L78.325 51" stroke="#1E40AF" stroke-width="0.5"/>
<path d="M68.825 49L77.325 45.5" stroke="#1E40AF" stroke-width="0.5"/>
<path d="M68.825 67L78.325 63.5" stroke="#1E40AF" stroke-width="0.5"/>
<path d="M78.325 48C78.325 45.5147 76.3102 43.5 73.825 43.5H68.825V68.5H73.825C76.3102 68.5 78.325 66.4853 78.325 64V48Z" stroke="#1E40AF"/>
<path d="M2.32495 48C2.32495 45.5147 4.33967 43.5 6.82495 43.5H11.825V68.5H6.82495C4.33967 68.5 2.32495 66.4853 2.32495 64V48Z" stroke="#1E40AF"/>
<path d="M25.325 5C25.325 2.51472 27.3397 0.5 29.825 0.5H50.825C53.3102 0.5 55.325 2.51472 55.325 5V11H25.325V5Z" stroke="#1E40AF"/>
<path d="M28.325 34H51.325M22.325 34H11.825V70C11.825 75.5228 16.3021 80 21.825 80H58.825C64.3478 80 68.825 75.5228 68.825 70V34H58.325" stroke="#1E40AF"/>
<path d="M28.325 34H51.325M22.325 34H12.325C5.97368 34 0.824951 28.8513 0.824951 22.5V22.5C0.824951 16.1487 5.97368 11 12.325 11H68.325C74.6762 11 79.825 16.1487 79.825 22.5V22.5C79.825 28.8513 74.6762 34 68.325 34H58.325" stroke="#1E40AF"/>
<path d="M18.825 13H25.825V56.5C25.825 58.433 24.2579 60 22.325 60C20.392 60 18.825 58.433 18.825 56.5V13Z" fill="#3B82F6"/>
<path d="M48.825 13H55.825V56.5C55.825 58.433 54.2579 60 52.325 60C50.392 60 48.825 58.433 48.825 56.5V13Z" fill="#3B82F6"/>
<path d="M21.825 45.5V11H28.825V45.5M21.825 51.5V54.5C21.825 56.433 23.392 58 25.325 58V58C27.2579 58 28.825 56.433 28.825 54.5V51.5" stroke="#1E40AF"/>
<path d="M50.825 45.5V11H58.825V45.5M50.825 51.5V54C50.825 56.2091 52.6158 58 54.825 58V58C57.0341 58 58.825 56.2091 58.825 54V51.5" stroke="#1E40AF"/>
<rect x="18.325" y="45.5" width="14" height="6" rx="2.5" stroke="#1E40AF"/>
<rect x="47.325" y="45.5" width="14" height="6" rx="2.5" stroke="#1E40AF"/>
</svg>
