<svg width="88" height="84" viewBox="0 0 88 84" fill="none" xmlns="http://www.w3.org/2000/svg">
<path d="M73.495 4.5H76.995C82.5178 4.5 86.995 8.97715 86.995 14.5V73C86.995 78.5228 82.5178 83 76.995 83H46.495C40.9721 83 36.495 78.5228 36.495 73V65.5" stroke="#1E40AF" stroke-linejoin="round"/>
<path d="M45.745 50.4583V56.8749C45.745 61.7074 41.8275 65.6249 36.995 65.6249C32.1625 65.6249 28.245 61.7074 28.245 56.8749V50.4583" stroke="#1E40AF" stroke-linecap="round"/>
<path d="M28.3646 58.3362H45.6254" stroke="#1E40AF" stroke-linecap="round"/>
<path fill-rule="evenodd" clip-rule="evenodd" d="M33.4116 53.8333C44.6875 53.8333 53.8283 44.6925 53.8283 33.4167C53.8283 22.1409 44.6875 13 33.4116 13C22.1358 13 12.995 22.1409 12.995 33.4167C12.995 44.6925 22.1358 53.8333 33.4116 53.8333Z" fill="#3B82F6"/>
<path fill-rule="evenodd" clip-rule="evenodd" d="M36.995 52.5029C48.2708 52.5029 57.4116 43.362 57.4116 32.0862C57.4116 20.8104 48.2708 11.6696 36.995 11.6696C25.7192 11.6696 16.5783 20.8104 16.5783 32.0862C16.5783 43.362 25.7192 52.5029 36.995 52.5029Z" stroke="#1E40AF" stroke-linecap="round"/>
<path d="M36.995 1.46118V4.37785" stroke="#1E40AF" stroke-linecap="round"/>
<path d="M15.3387 10.4329L17.4008 12.4949" stroke="#1E40AF" stroke-linecap="round"/>
<path d="M6.36998 32.0862H9.28665" stroke="#1E40AF" stroke-linecap="round"/>
<path d="M15.3387 53.7425L17.4008 51.6804" stroke="#1E40AF" stroke-linecap="round"/>
<path d="M58.6512 53.7425L56.5891 51.6804" stroke="#1E40AF" stroke-linecap="round"/>
<path d="M67.62 32.0862H64.7033" stroke="#1E40AF" stroke-linecap="round"/>
<path d="M58.6512 10.4329L56.5891 12.4949" stroke="#1E40AF" stroke-linecap="round"/>
</svg>
