<svg width="81" height="80" viewBox="0 0 81 80" fill="none" xmlns="http://www.w3.org/2000/svg">
<path d="M39.2954 38.3913C39.2954 27.6217 30.565 18.8912 19.7954 18.8912H1.165V78.7608H39.2954V38.3913Z" fill="#3B82F6" stroke="#1E40AF"/>
<path d="M42.0345 35.7826C42.0345 25.0131 50.765 16.2826 61.5345 16.2826H80.165V76.1522H42.0345V35.7826Z" fill="#3B82F6" stroke="#1E40AF"/>
<path d="M41.9041 35.7826C41.9041 25.0131 33.1737 16.2826 22.4041 16.2826H3.77368V76.1522H41.9041V35.7826Z" fill="#3B82F6" stroke="#1E40AF"/>
<path d="M49.3607 57.9564H73.2737" stroke="#1E40AF" stroke-linejoin="round"/>
<path d="M49.3607 50.5654H73.2737" stroke="#1E40AF" stroke-linejoin="round"/>
<path d="M49.3607 65.3477H73.2737" stroke="#1E40AF" stroke-linejoin="round"/>
<path fill-rule="evenodd" clip-rule="evenodd" d="M20.8232 57.599C20.8232 59.6269 17.7797 63.6243 16.7363 64.9243C16.6538 65.0278 16.5286 65.0881 16.3963 65.0881C16.2639 65.0881 16.1388 65.0278 16.0563 64.9243C15.0197 63.6199 11.9693 59.6269 11.9693 57.599C11.9693 55.1551 13.9505 53.1738 16.3945 53.1738C18.8385 53.1738 20.8197 55.1551 20.8197 57.599H20.8232Z" fill="#3B82F6"/>
<path fill-rule="evenodd" clip-rule="evenodd" d="M18.058 57.599C18.058 58.5154 17.3152 59.2582 16.3989 59.2582C15.4826 59.2582 14.7397 58.5154 14.7397 57.599C14.7397 56.6827 15.4826 55.9399 16.3989 55.9399C17.315 55.9404 18.0575 56.6829 18.058 57.599Z" fill="#3B82F6"/>
<path fill-rule="evenodd" clip-rule="evenodd" d="M20.8232 57.599C20.8232 59.6269 17.7797 63.6243 16.7363 64.9243C16.6538 65.0278 16.5286 65.0881 16.3963 65.0881C16.2639 65.0881 16.1388 65.0278 16.0563 64.9243C15.0197 63.6199 11.9693 59.6269 11.9693 57.599C11.9693 55.1551 13.9505 53.1738 16.3945 53.1738C18.8385 53.1738 20.8197 55.1551 20.8197 57.599H20.8232Z" stroke="#1E40AF" stroke-linecap="round" stroke-linejoin="round"/>
<path fill-rule="evenodd" clip-rule="evenodd" d="M18.058 57.599C18.058 58.5154 17.3152 59.2582 16.3989 59.2582C15.4826 59.2582 14.7397 58.5154 14.7397 57.599C14.7397 56.6827 15.4826 55.9399 16.3989 55.9399C17.315 55.9404 18.0575 56.6829 18.058 57.599Z" stroke="#1E40AF" stroke-linecap="round" stroke-linejoin="round"/>
<path fill-rule="evenodd" clip-rule="evenodd" d="M56.689 18.5481C56.439 18.9674 55.9364 19.1637 55.4684 19.0247C55.0004 18.8858 54.6863 18.4471 54.7056 17.9593L54.9843 10.4329L51.6027 6.70601C50.9111 5.95357 50.9356 4.78966 51.6583 4.06699C52.3809 3.34431 53.5448 3.31981 54.2973 4.01143L58.0242 7.39299L65.5506 7.11432C66.0384 7.09504 66.4771 7.40913 66.616 7.87711C66.7549 8.34509 66.5587 8.84769 66.1394 9.0977L61.9291 11.6239L63.4485 13.2692C63.5876 13.4193 63.7622 13.5322 63.9561 13.5976L66.137 14.3245C66.4328 14.4216 66.6572 14.6649 66.73 14.9675C66.8028 15.2702 66.7137 15.589 66.4944 15.8099C66.3249 15.9785 66.1096 16.0935 65.8753 16.1407L64.8854 16.3382C64.4053 16.434 64.0301 16.8092 63.9343 17.2893L63.7368 18.2792C63.6897 18.5135 63.5746 18.7288 63.406 18.8983C63.1861 19.1178 62.8683 19.2079 62.5659 19.1366C62.2635 19.0653 62.0194 18.8427 61.9206 18.5481L61.1937 16.3673C61.1283 16.1733 61.0154 15.9988 60.8653 15.8596L59.22 14.3403L56.689 18.5481Z" fill="#3B82F6" stroke="#1E40AF" stroke-linecap="round" stroke-linejoin="round"/>
<path fill-rule="evenodd" clip-rule="evenodd" d="M57.9432 16.0397C57.6932 16.459 57.1906 16.6552 56.7226 16.5163C56.2546 16.3774 55.9405 15.9387 55.9598 15.4509L56.2385 7.92445L52.8569 4.19759C52.1653 3.44514 52.1898 2.28124 52.9125 1.55856C53.6351 0.835889 54.7991 0.811387 55.5515 1.50301L59.2784 4.88456L66.8048 4.6059C67.2926 4.58662 67.7313 4.90071 67.8702 5.36869C68.0091 5.83666 67.8129 6.33926 67.3936 6.58928L63.1833 9.11545L64.7027 10.7608C64.8419 10.9109 65.0164 11.0237 65.2103 11.0891L67.3912 11.8161C67.687 11.9131 67.9114 12.1565 67.9842 12.4591C68.057 12.7618 67.9679 13.0805 67.7486 13.3015C67.5791 13.4701 67.3638 13.5851 67.1295 13.6323L66.1396 13.8298C65.6596 13.9255 65.2843 14.3008 65.1885 14.7809L64.991 15.7707C64.9439 16.0051 64.8288 16.2204 64.6603 16.3899C64.4403 16.6093 64.1225 16.6995 63.8201 16.6282C63.5177 16.5569 63.2736 16.3343 63.1748 16.0397L62.4479 13.8588C62.3825 13.6649 62.2696 13.4904 62.1195 13.3512L60.4742 11.8318L57.9432 16.0397Z" fill="#3B82F6" stroke="#1E40AF" stroke-linecap="round" stroke-linejoin="round"/>
</svg>
